<?xml version="1.0" standalone="no"?>
<!DOCTYPE svg PUBLIC "-//W3C//DTD SVG 1.1//EN" "http://www.w3.org/Graphics/SVG/1.1/DTD/svg11.dtd" >
<svg xmlns="http://www.w3.org/2000/svg">
<metadata>Generated by IcoMoon</metadata>
<defs>
<font id="MFAutoservicio" horiz-adv-x="1024">
<font-face units-per-em="1024" ascent="960" descent="-64" />
<missing-glyph horiz-adv-x="1024" />
<glyph unicode="&#x20;" horiz-adv-x="512" d="" />
<glyph unicode="&#xe900;" glyph-name="mapfre_230_shield_out" d="M932.081 894.846c-35.886-4.181-73.207-5.575-110.528-5.575-96.173 0-188.040 30.661-268.424 58.534-10.048 4.181-21.531 6.968-31.579 11.149-4.306 1.394-10.048 1.394-15.79 0-10.048-2.787-20.096-6.968-31.579-11.149-80.384-27.873-172.251-58.534-268.424-58.534-37.321 0-73.207 1.394-110.528 5.575-7.177 0-12.919-1.394-18.661-5.575-4.306-4.181-7.177-11.149-7.177-16.724v-507.296c0-236.924 414.837-420.889 433.498-427.857 2.871-1.394 5.742-1.394 10.048-1.394s7.177 0 10.048 1.394c17.225 8.362 433.498 190.933 433.498 427.857v507.296c0 6.968-2.871 12.543-7.177 16.724-2.871 4.181-10.048 6.968-17.225 5.575zM910.55 365.251c0-189.539-334.454-352.599-394.741-381.866-27.273 12.543-111.963 54.353-195.218 112.887-91.867 64.109-199.524 161.666-199.524 268.979v482.21c28.708-2.787 58.852-4.181 88.996-4.181 104.786 0 199.524 32.054 284.214 61.322 7.177 2.787 15.79 5.575 22.967 8.362 7.177-2.787 15.79-5.575 22.967-8.362 84.69-29.267 179.428-61.322 284.214-61.322 30.144 0 58.852 1.394 88.996 4.181v-482.21h-2.871zM610.861 612.502c-0.279 0.113-0.59 0.236-0.929 0.349-25.608 8.366-53.247 12.927-82.062 12.927-28.667 0-56.176-4.517-81.68-12.809-0.907-0.299-1.612-0.614-2.142-0.952-8.387-3.555-14.189-11.219-14.189-20.11 0-4.718 1.628-9.088 4.425-12.687l82.439-127.558c1.956-3.766 6.212-6.378 11.146-6.378 4.819 0 8.998 2.499 11.009 6.137l82.466 127.602c2.934 3.658 4.66 8.14 4.66 12.991 0 9.215-6.25 17.12-15.145 20.488zM368.39 570.642c-0.208-0.133-0.421-0.28-0.656-0.442-16.964-12.809-31.776-28.437-43.495-46.676-11.648-18.146-19.297-37.377-23.171-56.888-0.137-0.702-0.164-1.277-0.126-1.748-0.623-6.761 3.032-13.546 9.993-17.169 3.699-1.91 7.791-2.656 11.741-2.342l133.479 0.304c3.748-0.299 7.523 1.335 9.528 4.453 1.95 3.059 1.705 6.707-0.328 9.461l-66.469 104.080c-1.683 3.339-4.486 6.255-8.277 8.214-7.228 3.751-15.964 3.010-22.22-1.247zM687.344 570.642c-6.256 4.257-15.003 4.998-22.22 1.247-3.797-1.959-6.605-4.875-8.283-8.214l-66.469-104.080c-2.032-2.754-2.284-6.402-0.328-9.461 2.005-3.118 5.78-4.753 9.517-4.453l133.485-0.304c3.961-0.314 8.048 0.432 11.747 2.342 6.961 3.623 10.61 10.408 9.987 17.169 0.055 0.471 0.011 1.046-0.126 1.748-3.868 19.511-11.512 38.742-23.165 56.888-11.714 18.239-26.531 33.867-43.501 46.676-0.224 0.162-0.443 0.309-0.645 0.442zM547.664 409.738v-111.071h-39.567v111.071c-18.904 0.005-43.582 0.074-52.92 0.368l-131.201-0.285c-11.113-0.506-22.537 1.782-32.825 7.109-19.942 10.354-30.656 29.438-29.793 48.645 0.022 2.857 0.372 5.332 0.754 7.301 4.671 23.503 13.872 46.661 27.864 68.421 14.052 21.877 31.874 40.706 52.319 56.132 13.724 9.098 32.934 13.668 50.614 10.885 4.994 15.161 16.718 27.7 31.978 34.839 2.896 1.493 5.611 2.524 7.857 3.255 29.738 9.667 61.787 14.925 95.125 14.925 33.497 0 65.704-5.312 95.584-15.078 17.188-6.712 32.513-20.758 38.933-37.515 16.888 3.481 34.349 0.098 48.101-9.279 20.444-15.431 41.206-36.287 55.269-58.165 13.987-21.76 23.187-44.918 27.853-68.421 0.388-1.969 0.738-4.443 0.759-7.301 0.874-19.207-9.856-38.29-29.798-48.645-10.288-5.327-21.696-7.615-32.814-7.109l-131.212 0.285c-9.332-0.295-33.983-0.363-52.881-0.368z" />
<glyph unicode="&#xe901;" glyph-name="mapfre_001_cliente" d="M512.683 393.557c-87.381 0-159.232 85.845-193.707 173.568-19.627 12.117-31.403 42.837-36.011 68.949-5.632 31.915-2.731 65.536 13.995 81.408 1.707 102.571 29.184 162.645 86.187 188.075 34.475 26.453 77.995 39.936 129.365 39.936 51.541 0 95.403-13.824 130.048-40.96 51.883-24.405 78.336-77.312 83.285-166.229 1.024-7.68 1.877-15.189 2.389-22.699 16.043-17.408 17.237-51.541 12.288-79.531-4.437-25.6-15.701-54.784-33.963-67.584-33.963-88.235-105.984-174.933-193.877-174.933zM340.139 603.136l10.581-1.536 4.267-11.776c27.136-74.411 87.893-154.624 157.696-154.624s130.731 80.384 157.696 154.965l3.584 9.899 10.069 2.901c1.707 1.365 11.093 14.677 15.531 40.107 4.096 23.040 0.853 38.229-1.365 42.837l-10.069 3.755-0.683 13.653c-0.512 9.899-1.365 19.797-2.901 30.037l-0.171 1.707c-5.291 95.403-35.328 120.832-61.099 132.437l-2.56 1.195-2.048 1.707c-27.307 22.187-62.976 33.451-105.984 33.451-42.837 0-78.507-10.923-105.643-32.597l-2.56-1.707-2.731-1.195c-28.672-12.117-61.781-40.448-63.488-153.259l-0.171-1.536c-0.341-3.243-0.341-6.315-0.683-9.557l-0.853-16.213-11.776-2.389c-2.048-5.291-4.949-19.968-1.024-42.325 4.437-23.723 12.8-36.693 16.384-39.936zM502.443-49.664c-105.813 0-202.752 13.312-287.915 39.936-95.403 34.987-138.581 64-128 135.509 8.021 54.443 13.824 97.109 13.824 97.109 3.243 31.744 32.597 96.768 119.125 111.616 91.989 15.872 95.232 18.603 151.552 64.171l15.701 12.629 13.312-15.019c0.341-0.341 45.056-50.005 112.811-50.005 39.253 0 79.36 16.555 119.296 48.981l14.507 11.776 13.312-13.141c0.341-0.341 50.688-47.787 151.893-62.805 105.131-15.531 115.883-59.221 117.931-102.571 0.171-3.755 0.341-7.339 0.683-10.923 3.072-29.013 5.291-70.827 5.803-81.237 2.56-10.069 8.021-41.643-10.923-75.093-21.845-38.4-66.901-65.195-133.973-79.701-66.219-14.165-169.813-31.232-288.939-31.232zM383.147 354.645c-51.541-40.789-68.096-45.909-156.331-61.269-77.312-13.312-84.651-74.923-84.821-75.605-0.171-0.512-5.973-43.691-14.165-98.304-5.291-35.84 2.219-53.931 100.011-89.771 80.213-24.747 172.885-37.547 274.432-37.547 115.371 0 215.893 16.555 279.893 30.379 53.76 11.605 90.453 31.915 106.155 58.709 13.653 23.381 7.339 44.544 6.997 45.568l-1.024 5.461c0 0.341-2.219 49.664-5.632 81.067-0.341 4.267-0.683 8.704-0.853 13.312-1.195 27.648-2.219 51.371-82.261 63.147-83.968 12.459-137.216 44.885-160.768 62.293-43.349-31.915-87.723-47.957-132.096-47.957-61.952 0-107.691 31.573-129.536 50.517z" />
<glyph unicode="&#xe902;" glyph-name="mapfre_002_cliente-add" d="M411.989 396.459c-82.773 0-151.040 81.237-183.637 164.523-18.603 11.605-29.867 40.619-34.133 65.365-5.291 30.208-2.56 62.123 13.312 77.141 1.707 97.451 27.819 154.283 81.749 178.347 32.768 25.088 73.899 37.888 122.709 37.888 48.981 0 90.453-13.141 123.392-38.912 49.152-23.040 74.24-73.216 79.019-157.525 1.024-7.168 1.707-14.507 2.219-21.504 15.189-16.384 16.213-48.811 11.605-75.264-4.267-24.405-14.848-51.883-32.085-64.171-32.597-83.797-100.864-165.888-184.149-165.888zM248.491 595.115l9.899-1.365 4.096-11.093c25.771-70.656 83.456-146.432 149.504-146.432s123.904 76.117 149.504 146.773l3.413 9.387 9.557 2.901c1.536 1.365 10.581 13.824 14.677 38.059 3.925 22.016 0.853 36.181-1.195 40.619l-9.557 3.584-0.683 12.971c-0.512 9.387-1.365 18.944-2.731 28.501l-0.171 1.536c-4.949 90.453-33.621 114.517-58.027 125.44l-2.389 1.024-2.048 1.707c-25.941 20.992-59.733 31.744-100.523 31.744-40.619 0-74.411-10.411-100.181-30.891l-2.048-1.707-2.56-1.024c-27.136-11.435-58.539-38.4-60.075-145.237v-1.365c-0.341-3.072-0.512-6.144-0.683-9.045l-0.853-15.36-11.264-2.219c-2.048-5.12-4.608-18.944-1.024-40.107 4.096-23.040 12.117-35.499 15.36-38.4zM886.443 772.779h130.731v-58.368h-130.731v-150.357h-64.512v150.357h-131.755v58.368h131.755v138.581h64.512v-138.581zM402.432-23.723c-100.352 0-192.171 12.629-272.725 37.717-90.624 33.109-131.584 60.587-121.344 128.341 7.68 51.541 13.141 91.989 13.141 91.989 3.072 30.037 30.891 91.648 112.981 105.813 87.211 15.019 90.453 17.579 143.701 60.757l14.848 11.947 12.459-14.336c0.341-0.341 42.667-47.445 106.837-47.445 37.205 0 75.264 15.701 112.981 46.421l13.653 11.264 12.629-12.288c0.341-0.341 48.128-45.227 144.043-59.392 99.669-14.677 109.909-56.149 111.787-97.28 0.171-3.584 0.341-6.997 0.683-10.24 2.901-27.648 4.949-67.243 5.461-76.971 2.389-9.728 7.68-39.424-10.411-71.168-20.651-36.352-63.488-61.781-127.147-75.435-62.635-13.653-160.939-29.696-273.579-29.696zM289.28 359.424c-48.981-38.571-64.512-43.691-148.139-58.027-73.387-12.629-80.384-70.997-80.384-71.509s-5.632-41.301-13.312-93.184c-5.12-33.963 2.048-51.2 94.891-85.163 75.947-23.552 163.84-35.669 260.096-35.669 109.227 0 204.629 15.531 265.216 28.672 51.029 10.923 85.845 30.208 100.693 55.637 12.971 22.187 6.997 42.325 6.656 43.179l-1.024 5.12c0 0.512-2.219 47.104-5.461 76.8-0.512 4.096-0.683 8.363-0.853 12.8-1.195 26.112-2.219 48.811-77.995 59.904-79.701 11.776-130.048 42.496-152.405 59.051-40.96-30.208-83.115-45.397-125.269-45.397-58.709 0.171-101.888 29.867-122.709 47.787z" />
<glyph unicode="&#xe903;" glyph-name="mapfre_003_check" d="M397.995 96.768c-23.040 0-45.909 8.704-63.488 26.283l-292.011 291.84c-34.987 34.987-34.987 91.819 0 126.976 34.987 34.987 91.989 34.987 126.976 0l228.523-228.352 460.459 460.117c34.987 34.816 91.989 34.987 126.976 0s34.987-91.989 0-126.976l-524.117-523.605c-17.408-17.408-40.448-26.283-63.317-26.283z" />
<glyph unicode="&#xe904;" glyph-name="mapfre_004_triangle-down" d="M14.507 728.576l497.493-561.152 497.493 561.152z" />
<glyph unicode="&#xe905;" glyph-name="mapfre_005_angle-right" d="M823.637 395.093l-440.32-423.936c-30.379-29.184-79.701-29.184-109.739 0l-73.216 70.485c-30.379 29.184-30.379 76.8 0 105.643l311.808 300.715-311.979 300.544c-30.379 29.184-30.379 76.8 0 105.643l73.216 70.827c30.379 29.184 79.701 29.184 109.739 0l440.32-423.936c30.72-29.355 30.72-76.8 0.171-105.984v0z" />
<glyph unicode="&#xe906;" glyph-name="mapfre_006_angle-left" d="M214.016 500.907l423.424 423.424c29.184 29.184 76.629 29.184 105.472 0l70.485-70.485c29.184-29.184 29.184-76.629 0-105.472l-299.861-300.373 300.032-300.203c29.184-29.184 29.184-76.629 0-105.472l-70.485-70.656c-29.184-29.184-76.629-29.184-105.472 0l-423.424 423.253c-29.525 29.525-29.525 76.629-0.171 105.984v0z" />
<glyph unicode="&#xe907;" glyph-name="mapfre_007_angle-up" d="M564.907 751.104l424.277-424.277c29.355-29.355 29.355-76.8 0-105.813l-70.485-70.485c-29.355-29.355-76.8-29.355-105.813 0l-300.885 300.373-300.885-300.715c-29.355-29.355-76.8-29.355-105.813 0l-70.827 70.485c-29.355 29.355-29.355 76.8 0 105.813l424.277 424.277c29.525 29.696 76.971 29.696 106.155 0.341v0z" />
<glyph unicode="&#xe908;" glyph-name="mapfre_008_angle-down" d="M458.752 144.896l-428.203 428.203c-29.696 29.696-29.696 77.483 0 106.667l71.168 71.168c29.696 29.696 77.483 29.696 106.667 0l303.616-303.445 303.445 303.445c29.696 29.696 77.483 29.696 106.667 0l71.168-71.168c29.696-29.696 29.696-77.483 0-106.667l-428.032-428.203c-29.013-29.525-76.971-29.525-106.496 0v0z" />
<glyph unicode="&#xe909;" glyph-name="mapfre_009_arrow-right" d="M1007.957 473.088l-480.939 430.251c-6.827 5.973-15.189 9.045-24.917 9.045-9.899 0-18.091-3.072-24.917-9.045-4.096-3.755-6.997-8.192-8.704-13.653s-1.707-10.923 0-16.384 4.608-10.069 8.704-13.653l422.741-378.368h-862.891c-17.237 0-30.891-13.824-30.891-30.891s13.824-30.891 30.891-30.891h861.013l-427.179-382.123c-2.731-2.56-4.779-4.949-6.144-7.339-1.365-2.56-2.389-4.949-3.072-7.339s-1.024-4.949-1.024-7.68 0.341-5.461 1.024-8.192c0.683-2.731 1.707-5.291 3.072-7.68s3.413-4.437 6.144-6.315c6.827-5.973 15.019-9.045 24.405-9.045 9.557 0 17.579 3.072 24.405 9.045l488.277 436.565c6.656 6.144 10.069 13.312 10.069 21.845s-3.243 15.872-10.069 21.845z" />
<glyph unicode="&#xe90a;" glyph-name="mapfre_010_arrow-left" d="M504.32 903.168c6.827 5.973 14.848 9.045 24.405 9.045 9.387 0 17.579-3.072 24.405-9.045 2.731-1.877 4.779-3.925 6.144-6.315s2.389-4.949 3.072-7.68 1.024-5.461 1.024-8.192-0.341-5.291-1.024-7.68-1.707-4.779-3.072-7.339c-1.365-2.389-3.413-4.779-6.144-7.339l-462.848-413.867 456.704-408.405c4.096-3.584 6.997-8.192 8.704-13.653s1.707-10.923 0-16.384c-1.707-5.461-4.608-9.899-8.704-13.653-6.827-5.973-15.019-9.045-24.917-9.045-9.728 0-18.091 3.072-24.917 9.045l-480.939 430.421c-6.827 5.973-10.069 13.312-10.069 21.845s3.413 15.701 10.069 21.845l488.107 436.395zM986.965 414.72h-920.917c-17.067 0-30.891 13.824-30.891 30.891s13.824 30.891 30.891 30.891h921.088c17.067 0 30.891-13.824 30.891-30.891s-13.824-30.891-31.061-30.891z" />
<glyph unicode="&#xe90b;" glyph-name="mapfre_011_arrow-up" d="M967.168 455.68c5.973-6.827 9.045-14.848 9.045-24.405 0-9.387-3.072-17.579-9.045-24.405-1.877-2.731-3.925-4.779-6.315-6.144s-4.949-2.389-7.68-3.072-5.461-1.024-8.192-1.024-5.291 0.341-7.68 1.024-4.779 1.707-7.339 3.072c-2.389 1.365-4.779 3.413-7.339 6.144l-413.867 462.848-408.405-456.533c-3.584-4.096-8.192-6.997-13.653-8.704s-10.923-1.707-16.384 0c-5.461 1.707-9.899 4.608-13.653 8.704-5.973 6.827-9.045 15.019-9.045 24.917 0 9.728 3.072 18.091 9.045 24.917l430.251 480.939c5.973 6.827 13.312 10.069 21.845 10.069s15.701-3.413 21.845-10.069l436.565-488.277zM478.72-26.965v920.917c0 17.067 13.824 30.891 30.891 30.891s30.891-13.824 30.891-30.891v-921.088c0-17.067-13.824-30.891-30.891-30.891s-30.891 13.824-30.891 31.061z" />
<glyph unicode="&#xe90c;" glyph-name="mapfre_012_arrow-down" d="M56.832 440.32c-5.973 6.827-9.045 14.848-9.045 24.405 0 9.387 3.072 17.579 9.045 24.405 1.877 2.731 3.925 4.779 6.315 6.144s4.949 2.389 7.68 3.072 5.461 1.024 8.192 1.024 5.291-0.341 7.68-1.024 4.779-1.707 7.339-3.072c2.389-1.365 4.779-3.413 7.339-6.144l413.867-462.677 408.405 456.704c3.584 4.096 8.192 6.997 13.653 8.704s10.923 1.707 16.384 0c5.461-1.707 9.899-4.608 13.653-8.704 5.973-6.827 9.045-15.019 9.045-24.917 0-9.728-3.072-18.091-9.045-24.917l-430.421-481.109c-5.973-6.827-13.312-10.069-21.845-10.069s-15.701 3.413-21.845 10.069l-436.395 488.107zM545.28 922.965v-921.088c0-17.067-13.824-30.891-30.891-30.891s-30.891 13.824-30.891 30.891v921.088c0 17.067 13.824 30.891 30.891 30.891s30.891-13.653 30.891-30.891z" />
<glyph unicode="&#xe90d;" glyph-name="mapfre_013_atention" d="M920.917 5.803h-818.859c-31.403 0-59.563 16.384-75.264 43.691-15.872 27.648-15.872 60.416 0 88.064l409.429 708.949c15.872 27.307 44.032 43.691 75.776 43.691s59.904-16.384 75.776-43.691l409.429-709.12c15.872-27.477 15.872-60.245 0.171-87.723-15.872-27.307-44.373-43.861-76.459-43.861zM512 832.683c-5.291 0-18.261-1.536-26.112-15.019l-409.429-708.779c-5.632-9.557-5.632-20.992 0-30.549 2.56-4.437 10.24-14.848 25.6-14.848h819.029c16.213 0 24.064 10.581 26.624 15.189 5.461 9.557 5.461 20.821 0 30.208l-409.6 708.949c-7.851 13.312-20.821 14.848-26.112 14.848zM512.512 126.464c-44.203 0-80.213 36.352-80.213 81.237 0 44.715 36.352 81.237 81.237 81.237s80.213-36.181 80.213-82.261v-1.195c-1.707-43.52-38.059-79.019-81.237-79.019zM513.707 231.424c-12.971 0-23.723-10.923-23.723-23.723 0-13.483 9.899-23.723 22.699-23.723 12.117 0 23.040 10.752 23.723 23.381-0.341 13.653-10.069 24.064-22.699 24.064zM511.488 299.691c-36.352 0-66.048 28.331-67.755 64.341-1.536 31.061-3.243 54.613-5.12 77.312-1.877 23.040-3.584 47.104-5.291 78.507-0.512 8.192-1.024 16.725-1.536 24.917-0.512 8.533-1.024 17.067-1.536 25.088v1.877c0 38.4 25.941 73.045 61.611 82.261h0.341c6.485 1.707 13.141 2.389 19.797 2.389 31.232 0 59.392-17.579 73.728-46.251 6.144-12.459 8.704-27.136 6.997-41.301-2.048-25.771-3.072-52.736-3.925-76.459v-0.341c-1.195-20.821-2.389-33.621-3.755-46.080-1.365-12.288-2.389-23.893-3.413-43.179v-1.024c-0.512-5.803-0.683-11.605-1.024-17.749s-0.512-12.8-1.024-19.627c-2.389-37.035-31.232-64.683-68.096-64.683zM487.765 572.587c0.512-7.851 1.024-16.043 1.536-24.235 0.512-8.533 1.024-17.067 1.536-25.088v-0.341c1.536-31.061 3.243-54.613 5.12-77.312 1.877-23.211 3.584-47.104 5.291-78.848 0.341-5.291 5.12-9.728 10.411-9.728 7.339 0 10.069 5.803 10.411 10.752v0.853c0.512 5.973 0.683 12.117 1.024 17.92 0.341 6.315 0.512 13.141 1.195 19.797 1.195 20.651 2.389 33.28 3.755 45.739 1.365 12.288 2.389 23.723 3.413 43.008 1.024 24.405 1.877 51.883 4.267 79.189l0.171 1.365c0.512 3.413 0 6.827-1.365 9.387-4.437 9.045-13.141 14.507-22.187 14.507-1.877 0-3.755-0.171-5.803-0.683-10.581-3.072-18.603-14.336-18.773-26.283z" />
<glyph unicode="&#xe90e;" glyph-name="mapfre_014_perfil" d="M512.5 894.062c-27.36 0-54.386-5.172-81.079-15.515s-50.716-23.523-72.070-39.539c-21.354-16.016-38.538-33.366-51.55-52.051s-19.519-36.369-19.519-53.052v-160.156c0-31.364 7.841-71.403 23.523-120.117s40.206-86.418 73.572-113.11c8.675-6.673 15.181-15.181 19.519-25.525s5.839-21.187 4.504-32.532c-2.002-10.677-6.173-20.52-12.512-29.529s-14.514-15.849-24.524-20.52l-281.275-133.13c-4.004-1.335-9.509-4.504-16.516-9.509s-10.51-14.18-10.51-27.527v-65.064l895.875 1.001v62.061c0 17.35-4.171 28.194-12.512 32.532s-12.846 6.506-13.513 6.506l-279.273 132.129c-10.010 4.671-18.351 11.511-25.024 20.52s-10.677 19.185-12.012 30.53c-1.335 11.344 0.167 22.188 4.504 32.532s10.844 18.852 19.519 25.525c34.701 26.693 59.224 64.563 73.572 113.611s21.521 88.92 21.521 119.617v160.156c0 17.35-6.673 35.368-20.020 54.053s-30.53 35.868-51.55 51.55c-21.021 15.682-45.044 28.695-72.070 39.038s-53.886 15.515-80.579 15.515zM512.5 958.125c35.368 0 70.235-6.673 104.602-20.020s65.063-30.697 92.090-52.051c27.027-21.354 49.048-45.378 66.065-72.070s25.525-53.385 25.525-80.078v-160.156c0-19.352-2.002-41.707-6.006-67.065s-10.677-51.217-20.020-77.576c-9.343-26.359-21.688-51.717-37.036-76.074s-34.033-45.211-56.055-62.561l279.273-133.13 31.531-17.517c21.021-11.678 31.531-26.859 31.531-45.544v-97.095c0-17.35-6.173-32.198-18.518-44.543s-27.193-18.518-44.543-18.518h-896.876c-18.018 0-33.199 6.173-45.544 18.518s-18.518 27.193-18.518 44.543v97.095c0 17.35 10.677 32.198 32.031 44.544l32.031 18.518 281.275 133.13c-22.689 18.018-41.707 39.705-57.056 65.064s-27.86 51.217-37.537 77.576c-9.676 26.359-16.516 52.051-20.52 77.075s-6.006 46.212-6.006 63.562v160.156c0 26.693 8.341 53.385 25.024 80.078s38.537 50.716 65.564 72.070c27.027 21.354 57.89 38.704 92.59 52.051s69.735 20.020 105.103 20.020z" />
<glyph unicode="&#xe90f;" glyph-name="mapfre_015_location-pin" d="M514.219 446.976c33.621 0 62.293 12.288 85.504 36.864 23.552 24.576 35.328 54.101 35.328 88.235s-11.947 63.488-35.669 87.893c-23.723 24.235-52.395 36.352-86.187 36.352s-62.293-12.117-86.187-36.352c-23.723-24.235-35.669-53.419-35.669-87.893 0-34.133 11.947-63.659 36.181-88.235 24.064-24.576 53.077-36.864 86.699-36.864zM514.219 757.419c50.688 0 93.867-18.261 129.365-54.784s53.248-80.384 53.248-131.413c0-51.712-17.749-95.744-53.248-131.925s-78.677-54.272-129.365-54.272c-50.005 0-93.184 18.091-128.853 54.272s-53.76 80.213-53.76 131.925c0 51.029 17.92 94.891 53.76 131.413s78.677 54.784 128.853 54.784zM528.384 18.261c48.128 56.32 90.283 109.909 126.464 160.939s66.219 99.499 90.283 145.067c24.235 45.568 42.155 88.576 54.272 129.024 11.947 40.448 18.091 77.995 18.091 112.981 0 39.424-5.803 77.995-17.579 115.883-11.776 37.717-30.037 71.509-54.613 101.376-24.747 29.696-55.979 53.589-93.696 71.68-37.717 17.92-82.603 27.136-134.656 27.136-41.813 0-81.408-8.533-118.955-25.259-37.376-16.725-70.144-39.595-97.963-68.437s-50.005-62.293-66.56-100.864c-16.555-38.4-24.747-79.189-24.747-121.856 0-45.909 9.557-92.501 28.501-139.605s43.179-93.696 72.363-139.264c29.184-45.568 61.269-89.6 96.085-131.925s67.925-82.091 98.987-118.955l16.043-18.432 3.755-3.755c0.683 0.683 1.536 1.365 2.389 2.048 1.195 1.024 1.536 1.707 1.536 2.219zM517.12 944.64c57.003 0 108.203-10.069 153.259-30.037s82.944-47.445 113.664-82.091c30.72-34.645 54.272-74.923 70.315-120.661 16.043-45.909 24.235-94.379 24.235-145.579 0-51.712-10.069-104.619-30.037-158.549-19.968-54.101-45.227-107.008-75.605-159.061-30.549-52.053-63.317-101.376-98.987-147.968-35.499-46.592-68.779-87.893-99.84-124.075 0-0.683-4.779-4.949-14.336-13.141-9.557-8.021-20.651-12.117-33.28-12.117h-2.901c-13.312 0-24.576 4.096-33.792 12.117s-13.653 12.459-13.653 13.141c-32.939 38.912-68.608 81.067-107.179 126.976-38.4 45.909-73.899 94.379-106.667 145.067-32.597 50.688-59.904 103.083-81.92 156.672-21.845 53.76-32.768 107.52-32.768 161.109 0 51.029 9.728 99.669 29.525 145.579s46.421 86.187 79.872 120.661c33.621 34.645 72.704 61.952 117.589 82.091 44.885 19.797 92.331 29.867 142.507 29.867z" />
<glyph unicode="&#xe910;" glyph-name="mapfre_016_heart" d="M512.341-26.453c-23.211 0-45.056 10.069-60.075 27.477v0l-365.909 429.397c-104.448 124.928-90.624 307.2 31.403 415.061 112.469 99.499 279.381 102.059 394.581 11.264 115.029 90.283 281.6 87.552 393.728-11.435 121.856-107.52 136.021-289.28 32.597-414.037l-366.592-430.080c-14.848-17.579-36.693-27.648-59.733-27.648zM509.952 50.176c0.512-0.512 1.365-0.853 2.048-0.853l368.299 430.763c76.8 92.672 66.048 228.181-24.747 308.395-91.307 80.725-230.571 76.629-316.757-9.216l-26.795-26.624-26.795 26.795c-86.357 86.187-225.792 90.283-317.269 9.387-90.965-80.555-101.376-216.235-23.723-309.248l365.739-429.397z" />
<glyph unicode="&#xe911;" glyph-name="mapfre_017_house" d="M362.528-6.316v232.175c0 32.009 25.946 57.957 57.951 57.957h176.976c15.37 0 30.11-6.106 40.978-16.975s16.973-25.611 16.973-40.982v-232.175h190.163v416.246l-333.479 331.297-343.889-341.639v-405.904h194.327zM414.58-6.316h188.775v232.175c0 1.565-0.622 3.065-1.728 4.172s-2.607 1.728-4.171 1.728h-176.976c-1.565 0-3.065-0.622-4.171-1.728s-1.728-2.607-1.728-4.172v-232.175zM840.711 656.436l157.89-156.408c16.254-16.099 25.399-38.028 25.399-60.907s-9.145-44.808-25.399-60.907c-27.357-27.311-68.569-32.293-100.98-14.945v-421.642h-781.471v416.943c-9.457-3.522-19.556-5.365-29.843-5.343-34.895-0.241-66.453 20.7-79.793 52.949s-5.8 69.367 19.066 93.853l437.235 434.505c26.987 26.455 70.177 26.455 97.163 0l104.104-103.126v0.4c-0.092 12.578 4.839 24.672 13.699 33.599s20.917 13.947 33.494 13.947h81.895c26.256 0 47.541-21.287 47.541-47.546v-175.37zM788.659 707.999v119.296h-72.526v-47.451l72.526-71.845zM511.396 902.604c-4.414-0.026-8.645-1.769-11.798-4.859l-437.235-434.505c-13.001-13.451-13.001-34.788 0-48.24 13.405-12.78 34.483-12.78 47.888 0l401.84 400.841 401.84-400.841c13.405-12.78 34.483-12.78 47.888 0 13.001 13.451 13.001 34.788 0 48.24l-438.276 434.505c-3.298 3.082-7.632 4.815-12.145 4.859z" />
<glyph unicode="&#xe912;" glyph-name="mapfre_018_building" d="M630.101-3.755h-94.549v190.293h94.549v-190.293zM252.075 899.755h519.68v-903.339h-94.549v213.845c0 13.141-10.581 23.893-23.723 23.893h-141.653c-12.971 0-23.723-10.581-23.723-23.893v-214.016h-236.032v903.509zM890.027-3.755h-70.997v927.061c0 13.141-10.581 23.893-23.723 23.893h-566.784c-12.971 0-23.723-10.752-23.723-23.893v-927.061h-70.827c-12.971 0-23.723-10.581-23.723-23.893s10.752-23.723 23.893-23.723h756.053c13.141 0 23.723 10.581 23.723 23.893-0.171 13.312-10.923 23.723-23.893 23.723zM370.347 233.984c-12.971 0-23.723-10.581-23.723-23.893v-47.445c0-13.141 10.581-23.893 23.723-23.893 12.971 0 23.723 10.581 23.723 23.893v47.445c-0.171 13.312-10.752 23.893-23.723 23.893zM370.347 424.107c-12.971 0-23.723-10.581-23.723-23.893v-47.445c0-13.141 10.581-23.893 23.723-23.893 12.971 0 23.723 10.581 23.723 23.893v47.445c-0.171 13.312-10.752 23.893-23.723 23.893zM512 329.216c12.971 0 23.723 10.581 23.723 23.893v47.445c0 13.141-10.581 23.893-23.723 23.893-12.971 0-23.723-10.581-23.723-23.893v-47.445c0-13.312 10.752-23.893 23.723-23.893zM653.653 329.216c13.141 0 23.723 10.581 23.723 23.893v47.445c0 13.141-10.581 23.893-23.723 23.893s-23.723-10.581-23.723-23.893v-47.445c0.171-13.312 10.752-23.893 23.723-23.893zM370.347 614.4c-12.971 0-23.723-10.752-23.723-23.893v-47.445c0-13.141 10.581-23.893 23.723-23.893 12.971 0 23.723 10.752 23.723 23.893v47.445c-0.171 13.312-10.752 23.893-23.723 23.893zM512 519.339c12.971 0 23.723 10.752 23.723 23.893v47.445c0 13.141-10.581 23.893-23.723 23.893-12.971 0-23.723-10.752-23.723-23.893v-47.616c0-13.141 10.752-23.723 23.723-23.723zM653.653 519.339c13.141 0 23.723 10.752 23.723 23.893v47.445c0 13.141-10.581 23.893-23.723 23.893s-23.723-10.752-23.723-23.893v-47.616c0.171-13.141 10.752-23.723 23.723-23.723zM370.347 804.523c-12.971 0-23.723-10.752-23.723-23.893v-47.445c0-13.141 10.581-23.893 23.723-23.893 12.971 0 23.723 10.752 23.723 23.893v47.445c-0.171 13.312-10.752 23.893-23.723 23.893zM512 709.461c12.971 0 23.723 10.752 23.723 23.893v47.445c0 13.141-10.581 23.893-23.723 23.893-12.971 0-23.723-10.752-23.723-23.893v-47.445c0-13.312 10.752-23.893 23.723-23.893zM653.653 709.461c13.141 0 23.723 10.752 23.723 23.893v47.445c0 13.141-10.581 23.893-23.723 23.893s-23.723-10.752-23.723-23.893v-47.445c0.171-13.312 10.752-23.893 23.723-23.893z" />
<glyph unicode="&#xe913;" glyph-name="mapfre_019_car" d="M962.389 240.64c0-38.059-32.085-69.12-71.168-69.12h-746.667c-37.888 0-82.944 31.061-82.944 69.12v230.4c0 38.059 32.085 69.12 71.168 69.12h758.613c39.083 0 71.168-31.061 71.168-69.12v-230.4zM915.115 67.755c0-19.627-15.531-34.645-35.499-34.645h-23.723c-20.139 0-35.499 15.019-35.499 34.645v57.685h71.168c8.363 0 16.555 1.195 23.723 2.389v-60.075zM203.776 67.755c0-19.627-15.531-34.645-35.499-34.645h-23.723c-20.139 0-35.499 15.019-35.499 34.645v63.317c11.776-3.413 23.723-5.803 35.499-5.803h59.392c-0.171 0-0.171-57.515-0.171-57.515zM175.445 808.619c7.168 31.061 35.499 54.272 68.779 54.272h523.776c33.28 0 62.805-23.040 68.779-54.272l51.029-222.379h-763.563l51.2 222.379zM938.667 577.024v3.413l-54.443 238.592c-11.776 53.077-60.587 91.136-116.224 91.136h-523.947c-55.637 0-104.448-38.059-116.224-91.136l-54.443-239.787c-1.195-3.413-1.195-5.803 0-9.216-35.499-19.627-59.392-57.685-59.392-100.181v-230.571c0-35.669 20.139-65.707 48.469-86.357 0-1.195-1.195-3.413-1.195-5.803v-80.555c0-44.885 36.693-80.555 82.944-80.555h23.723c46.251 0 82.944 35.669 82.944 80.555v57.685h521.557v-57.685c0-44.885 36.693-80.555 82.944-80.555h23.723c46.251 0 82.944 35.669 82.944 80.555v80.555c28.501 20.821 47.445 54.272 47.445 92.331v231.595c0.341 47.275-29.184 87.723-70.827 105.984zM192 344.235c-12.971 0-23.723 10.24-23.723 23.040 0 12.629 10.581 23.040 23.723 23.040s23.723-10.24 23.723-23.040c-0.171-12.629-10.752-23.040-23.723-23.040zM192 436.565c-39.083 0-71.168-31.061-71.168-69.12s32.085-69.12 71.168-69.12 71.168 31.061 71.168 69.12c-0.171 37.888-32.085 69.12-71.168 69.12zM832 344.235c-12.971 0-23.723 10.24-23.723 23.040 0 12.629 10.581 23.040 23.723 23.040 12.971 0 23.723-10.24 23.723-23.040 0-12.629-10.581-23.040-23.723-23.040zM832 436.565c-39.083 0-71.168-31.061-71.168-69.12s32.085-69.12 71.168-69.12c39.083 0 71.168 31.061 71.168 69.12 0 37.888-31.915 69.12-71.168 69.12z" />
<glyph unicode="&#xe914;" glyph-name="mapfre_020_cross" d="M966.656 691.541h-211.115v211.115c0 27.477-22.357 49.835-49.835 49.835h-387.413c-27.648 0-49.835-22.357-49.835-49.835v-211.115h-211.115c-27.477 0-49.835-22.357-49.835-49.835v-387.243c0-27.648 22.357-49.835 49.835-49.835h211.115v-211.285c0-27.477 22.357-49.835 49.835-49.835h387.243c27.648 0 49.835 22.357 49.835 49.835v211.115h211.285c27.477 0 49.835 22.357 49.835 49.835v387.413c0 27.648-22.357 49.835-49.835 49.835zM966.656 293.717c0-21.845-17.749-39.765-39.765-39.765h-220.843v-221.184c0-21.845-17.749-39.765-39.765-39.765h-308.565c-21.845 0-39.765 17.749-39.765 39.765v221.184h-221.013c-21.845 0-39.765 17.749-39.765 39.765v308.565c0 21.845 17.749 39.765 39.765 39.765h221.184v221.013c0 21.845 17.749 39.765 39.765 39.765h308.395c21.845 0 39.765-17.749 39.765-39.765v-221.184h221.184c21.845 0 39.765-17.749 39.765-39.765l-0.341-308.395z" />
<glyph unicode="&#xe915;" glyph-name="mapfre_021_-briefcase" d="M77.653 40.96h868.693v375.808h-341.333v-62.805c0-17.749-6.144-32.427-18.432-44.544s-26.795-18.261-43.52-18.261h-62.123c-17.408 0-32.085 6.144-44.032 18.261s-17.92 26.965-17.92 44.544v62.805h-341.333v-375.808zM543.061 353.963v157.867h-62.123v-157.867h62.123zM77.653 700.075v-220.672h341.333v32.256c0 17.067 5.973 31.573 17.92 44.032s26.624 18.603 44.032 18.603h62.123c16.725 0 31.232-6.144 43.52-18.603s18.432-27.136 18.432-44.032v-32.256h341.333v220.672h-868.693zM387.925 823.637v-60.757h248.149v60.757c0 8.533-2.901 15.872-8.704 22.016s-13.312 9.216-22.357 9.216h-186.027c-8.533 0-15.701-3.072-21.845-9.216-6.315-6.144-9.216-13.483-9.216-22.016zM946.347 762.709c16.725 0 31.232-6.144 43.52-18.603s18.432-27.136 18.432-44.032v-659.115c0-17.067-6.144-31.573-18.432-44.032s-26.795-18.603-43.52-18.603h-868.693c-16.725 0-31.232 6.144-43.52 18.603s-18.432 27.136-18.432 44.032v659.115c0 17.067 6.144 31.573 18.432 44.032s26.795 18.603 43.52 18.603h248.149v60.757c0 25.429 9.045 47.616 27.136 66.219s40.107 27.989 65.877 27.989h186.197c25.771 0 47.957-9.216 65.877-27.989 18.091-18.603 27.136-40.789 27.136-66.219v-60.587h248.32z" />
<glyph unicode="&#xe916;" glyph-name="mapfre_030_call" d="M512 947.2c-241.835 0-438.613-196.779-438.613-438.613v-237.739c0-48.299 39.424-87.723 87.723-87.723h34.304c12.459-34.987 45.568-58.539 82.603-58.539 48.299 0 87.723 39.424 87.723 87.723v237.739c0 48.299-39.424 87.723-87.723 87.723-38.229 0-70.485-24.405-82.603-58.539h-34.304c-10.24 0-20.139-1.707-29.184-5.12v34.304c0 209.579 170.496 380.075 380.075 380.075s380.075-170.496 380.075-380.075v-34.304c-9.387 3.243-19.285 5.12-29.184 5.12h-34.304c-12.459 34.987-45.568 58.539-82.603 58.539-48.299 0-87.723-39.424-87.723-87.723v-237.739c0.171-48.469 39.595-87.723 88.064-87.552 8.533 0 17.067 1.365 25.259 3.755-11.264-37.035-45.227-62.123-83.797-62.293h-92.843c-12.459 34.987-45.568 58.539-82.603 58.539-48.299 0-87.723-39.424-87.723-87.723s39.424-87.723 87.723-87.723c38.229 0 70.485 24.405 82.603 58.539h92.843c80.725 0.171 146.091 65.536 146.261 146.261v29.184h29.184c48.299 0 87.723 39.424 87.723 87.723v237.568c-0.341 241.835-197.12 438.613-438.955 438.613z" />
<glyph unicode="&#xe917;" glyph-name="mapfre_031_qanda" d="M943.275 512.512c0-213.333-153.429-390.315-355.157-426.496v-115.541c0.171-10.411-8.192-19.115-18.773-19.285-5.12 0-10.069 1.877-13.824 5.632l-129.877 130.731c-196.608 40.107-344.917 215.040-344.917 424.96 0 239.616 193.195 433.835 431.275 433.835s431.275-194.219 431.275-433.835zM512 282.795c13.995 0 25.429 11.435 25.429 25.429v0c0 13.995-11.264 25.6-25.259 25.6 0 0 0 0-0.171 0-13.995 0-25.429-11.435-25.429-25.429v0 0c0-14.165 11.435-25.6 25.429-25.6v0zM512 384.853c13.995 0 25.429 11.605 25.429 25.6v0 7.509c0 11.264 7.509 21.163 18.432 24.405 64.341 19.968 108.203 79.36 108.373 146.603 0 40.277-16.043 78.507-45.056 107.691-28.16 28.843-66.731 45.227-107.008 45.397-83.968 0-152.235-68.779-152.235-153.088 0-13.995 11.264-25.429 25.429-25.6v0c13.995 0 25.429 11.435 25.429 25.429-0.171 56.149 45.227 101.888 101.547 102.059 26.453 0 51.712-10.752 71.168-30.379 19.285-18.944 30.208-44.715 30.379-71.509-0.171-44.885-29.355-84.48-72.192-97.792-32.427-9.557-54.613-39.424-54.613-73.216v-7.68c-0.512-13.824 10.923-25.259 24.917-25.429z" />
<glyph unicode="&#xe918;" glyph-name="mapfre_029_location-pin2" d="M512 474.283c22.357 0 43.179 5.632 62.293 16.896s34.475 26.283 45.568 45.056c11.264 18.773 16.896 39.424 16.896 61.781s-5.632 43.179-16.896 62.293c-10.923 18.944-26.624 34.645-45.568 45.568-18.944 11.093-40.448 16.896-62.293 16.896-22.357 0-42.837-5.632-61.781-16.896-18.603-11.093-34.133-26.795-45.056-45.568-11.093-18.944-16.896-40.448-16.896-62.293 0-34.475 11.947-63.488 36.011-87.552 24.235-24.064 53.248-36.181 87.723-36.181zM512 946.859c63.829 0 122.709-15.531 176.299-46.763 52.053-30.549 95.403-73.728 125.781-125.781 31.232-53.419 47.275-114.347 46.763-176.128 0-48.811-11.947-104.789-35.84-167.936-20.821-53.419-49.493-111.445-86.528-173.909-32.597-52.907-67.413-104.619-104.277-154.624-27.307-37.888-56.149-74.581-86.528-110.251l-35.84-41.984-36.011 41.984c-30.208 35.669-58.88 72.533-86.357 110.251-36.864 50.005-71.68 101.717-104.277 154.624-36.693 62.293-65.536 120.32-86.357 173.909-24.064 63.147-36.011 119.125-36.011 167.936 0 63.829 15.531 122.709 46.763 176.128 30.549 52.053 73.728 95.403 125.781 125.952 53.931 30.891 114.688 47.104 176.64 46.592z" />
<glyph unicode="&#xe919;" glyph-name="mapfre_028_pagos" d="M1007.787 498.176v200.363h-993.109v-200.363h993.109zM12.629 748.373c0 27.989 9.387 51.712 28.16 71.339 18.091 19.285 43.691 29.867 70.144 29.355h800.427c27.989 0 51.371-9.728 70.144-29.355s28.16-43.349 28.16-71.339v-599.211c0.512-26.624-9.557-52.224-28.16-71.339-18.091-19.285-43.691-30.037-70.144-29.355h-800.427c-26.453-0.683-51.883 10.069-70.144 29.355-18.603 19.115-28.672 44.885-28.16 71.509z" />
<glyph unicode="&#xe91a;" glyph-name="mapfre_027_box" d="M841.387 564.907l-316.587 193.365 176.299 146.432c13.995 11.605 33.621 12.971 49.152 3.584l240.299-148.309c19.797-12.288 26.112-38.229 13.824-58.368-2.56-4.096-5.632-7.68-9.387-10.752l-153.6-125.952zM748.373 214.869l226.304 132.779c20.139 11.947 26.795 37.888 15.019 58.027-2.389 4.267-5.461 7.851-9.216 10.923l-137.216 116.395-297.643-180.736 153.6-133.12c13.824-11.776 33.621-13.483 49.152-4.267zM478.208 352.427l-297.643 180.736-137.045-116.395c-17.92-15.019-19.968-41.813-4.949-59.733 3.072-3.755 6.827-6.656 10.923-9.216l226.475-132.779c15.701-9.216 35.328-7.339 48.981 4.437l153.259 132.949zM195.584 224.939v-33.621c0-14.677 7.68-28.501 20.139-36.181l283.648-174.592v354.987l-201.728-165.717c0 0-102.059 55.125-102.059 55.125zM828.416 224.939l-101.888-55.125-201.728 165.717v-354.987l283.477 174.592c12.459 7.68 20.139 21.333 20.139 36.181 0 0 0 33.621 0 33.621zM499.2 758.443l-176.299 146.261c-13.995 11.605-33.621 12.971-49.152 3.584l-240.128-148.48c-19.797-12.288-25.941-38.229-13.824-58.368 2.56-4.096 5.632-7.68 9.387-10.752l153.771-125.952 316.245 193.707z" />
<glyph unicode="&#xe91b;" glyph-name="mapfre_026_decesos" d="M988.501 833.365c-119.467 0-288.256-10.752-374.443-103.424-66.048-70.997-65.877-210.603-22.357-291.328-38.741-62.123-64.853-130.389-81.92-199.339-18.091 126.123-49.152 218.795-83.968 287.744 50.005 78.336 53.589 228.352-15.701 302.763-86.357 92.672-254.976 103.424-374.613 103.424-12.459 0-22.357-10.923-22.357-24.064 0-128.341 10.069-309.931 96.085-402.603 36.523-39.253 92.331-56.661 147.627-56.661 50.688 0 101.205 14.848 135.68 40.96 48.811-102.4 88.747-259.243 88.747-503.808 0-13.141 10.069-24.064 22.357-24.064 12.459 0 22.357 10.923 22.357 24.064 0 129.024 20.139 283.989 95.403 412.16 34.475-31.232 89.6-48.981 145.579-48.981 55.296 0 111.104 17.408 147.627 56.661 86.016 92.843 96.085 274.261 96.085 402.603 0.171 13.141-9.899 23.893-22.187 23.893z" />
<glyph unicode="&#xe91c;" glyph-name="mapfre_025_heart2" d="M512-13.824l-72.533 66.56c-109.739 99.157-185.515 170.155-227.499 212.992-68.608 69.461-118.101 131.072-148.821 185.173-36.523 61.269-54.613 122.709-54.613 183.979 0 50.859 12.288 97.451 36.864 139.776 23.893 41.472 58.197 75.947 99.84 99.84 41.984 24.235 88.747 36.352 140.459 36.352 42.837 0 84.309-9.728 124.587-29.013 38.912-18.261 73.557-44.715 101.717-77.483 27.989 32.768 62.635 59.051 101.717 77.483 39.253 19.115 82.261 29.013 125.952 29.013 50.859 0 97.451-12.117 139.776-36.352 41.813-23.552 76.288-58.027 99.84-99.84 24.235-42.325 36.352-88.917 36.352-139.776 0-61.269-17.749-123.051-53.248-185.173-31.403-54.101-81.408-115.883-150.016-185.173-42.837-44.373-118.272-115.712-226.304-214.187l-74.069-64.171z" />
<glyph unicode="&#xe91d;" glyph-name="mapfre_024_house2" d="M1003.126 484.78l-172.019 170.688v196.694c0 12.542-10.159 22.71-22.692 22.71h-86.376c-12.532 0-22.692-10.167-22.692-22.71v-65.931l-156.281 154.938c-8.443 8.455-19.898 13.205-31.842 13.205s-23.399-4.75-31.842-13.205l-458.961-456.389c-23.072-21.803-27.090-57.071-9.516-83.513 10.668-15.317 27.575-25.11 46.16-26.737s36.934 5.081 50.097 18.312l14.64 14.285v-449.063c0-10.115 8.193-18.314 18.3-18.314h222.893c10.025 0.195 18.105 8.281 18.3 18.314v254.2c0 18.611 15.075 33.698 33.672 33.698h187.025c18.596 0 33.672-15.087 33.672-33.698v-254.2c0-10.115 8.193-18.314 18.3-18.314h219.599c10.025 0.195 18.105 8.281 18.3 18.314v459.685l25.254-24.907c13.163-13.232 31.512-19.939 50.097-18.312s35.493 11.42 46.16 26.737c17.391 26.614 13.061 61.901-10.248 83.513z" />
<glyph unicode="&#xe91e;" glyph-name="mapfre_023_cross2" d="M733.525 670.379h229.717c27.819 0 50.176-22.528 50.176-50.176v-344.235c0-27.819-22.528-50.176-50.176-50.176h-229.547v-229.717c0-27.819-22.528-50.176-50.176-50.176h-344.405c-27.819 0-50.176 22.528-50.176 50.176v229.547h-229.717c-27.819 0-50.176 22.528-50.176 50.176v344.405c0 27.819 22.528 50.176 50.176 50.176h229.547v229.717c0 27.819 22.528 50.176 50.176 50.176h344.405c27.819 0 50.176-22.528 50.176-50.176v-229.717z" />
<glyph unicode="&#xe91f;" glyph-name="mapfre_022_car2" d="M128.853 558.763h766.293l-81.749 250.88h-601.6l-82.944-250.88zM813.568 282.453c22.699 0 42.155 8.021 57.856 24.064 15.701 15.872 23.723 36.011 23.723 60.075s-8.021 43.861-23.723 59.392c-15.189 15.36-36.181 23.723-57.856 23.381-21.845 0.341-43.179-8.363-58.539-24.064-16.213-16.043-24.405-35.499-24.405-58.709 0-23.040 8.021-42.837 23.723-59.221 15.872-16.555 35.328-24.917 59.221-24.917zM211.797 282.453c22.699 0 42.155 8.021 57.856 24.064 15.701 15.872 23.723 36.011 23.723 60.075s-8.021 43.861-23.723 59.392c-15.189 15.36-36.181 23.723-57.856 23.381-21.845 0.341-43.179-8.363-58.539-24.064-16.213-16.043-24.405-35.499-24.405-58.709 0-23.040 8.021-42.837 23.723-59.221 15.701-16.555 35.499-24.917 59.221-24.917zM892.587 837.632l113.152-333.653v-445.781c0-15.189-5.291-27.989-15.701-38.741-9.899-10.411-23.723-16.213-38.229-15.872h-56.661c-15.019 0-27.648 5.291-38.229 15.872-10.24 10.069-16.043 24.235-15.701 38.741v57.515h-658.432v-57.515c0-15.189-5.291-27.989-15.701-38.741-9.899-10.411-23.723-16.213-38.229-15.872h-56.661c-15.019 0-27.648 5.291-38.229 15.872-10.24 10.069-16.043 24.235-15.701 38.741v445.952l113.152 333.653c5.291 16.896 15.189 30.208 30.379 39.936 15.019 9.728 31.573 14.848 50.005 14.848h601.6c18.432 0 34.816-4.949 49.323-14.677 14.677-10.069 24.405-23.381 29.867-40.277z" />
<glyph unicode="&#xe920;" glyph-name="mapfre_034_angle2-left" d="M315.392 448l450.901-451.072c25.771-25.771-12.8-64.341-38.571-38.571l-470.187 470.187c-4.608 4.608-7.168 9.899-8.192 14.848-1.024 9.045 1.195 16.896 8.192 23.893l470.187 470.357c25.771 25.771 64.512-12.8 38.571-38.571l-450.901-451.072z" />
<glyph unicode="&#xe921;" glyph-name="mapfre_033_angle2-right" d="M255.147 903.509c-26.112 26.112 12.8 65.024 38.912 38.912l474.965-474.965c6.997-6.997 9.216-14.848 8.192-24.064-0.853-5.12-3.584-10.411-8.192-15.019l-474.965-474.795c-26.112-26.112-65.024 12.971-38.912 38.912l455.509 455.509-455.509 455.509z" />
<glyph unicode="&#xe922;" glyph-name="mapfre_035_edit" d="M992.597 722.091l-100.693-100.693-206.507 206.677 100.693 100.693c10.24 10.581 24.405 16.213 39.083 15.872 15.36 0 28.501-5.291 39.083-15.872l128.341-128.512c10.581-10.24 16.213-24.405 15.872-39.083 0-15.531-5.291-28.501-15.872-39.083zM15.531 158.037l610.304 610.475 206.677-206.677-610.304-610.475h-206.677v206.677z" />
<glyph unicode="&#xe923;" glyph-name="mapfre_042_home" d="M1002.837 446.976c5.803-6.485 8.533-13.995 8.192-22.528s-3.413-16.043-9.216-22.528c-3.243-2.56-6.656-4.779-10.24-6.315-3.584-1.707-7.339-2.389-11.093-2.389-4.608 0-8.704 0.853-12.629 2.389s-7.168 4.096-9.728 7.339l-41.813 44.032v-468.139c0-8.533-3.072-15.872-9.216-22.016s-13.483-9.216-21.845-9.216h-217.771c-8.363 0-15.701 3.072-21.845 9.216s-9.216 13.483-9.216 22.016v312.832h-247.808l-1.024-312.832c0-8.533-3.072-15.872-9.216-22.016s-13.483-9.216-21.845-9.216h-216.747c-9.045 0-16.555 3.072-22.357 9.216s-8.704 13.483-8.704 22.016v468.139l-41.813-44.032c-6.485-5.803-13.995-9.045-22.357-9.216s-15.872 2.389-22.357 8.363c-5.803 6.485-8.875 13.995-9.216 22.528s2.389 16.043 8.192 22.528l469.504 491.691c3.243 3.243 6.827 5.632 10.752 7.339s7.851 2.389 11.605 2.389c4.608 0 8.704-0.853 12.629-2.389 3.925-1.707 7.168-4.096 9.728-7.339l467.456-491.861zM854.187 507.563c0 1.365 0.341 2.56 1.024 3.925l-342.187 359.765-343.040-359.765c0-1.365 0.171-2.56 0.512-3.925s0.512-2.56 0.512-3.925v-493.568h154.453l1.024 312.832c0 8.533 3.072 15.872 9.216 22.016s13.483 9.216 21.845 9.216h310.101c8.363 0 15.701-3.072 21.845-9.216s9.216-13.483 9.216-22.016v-312.832h155.477v497.493z" />
<glyph unicode="&#xe924;" glyph-name="mapfre_043_cartel" d="M451.413 409.771h-364.032v335.36h629.76l201.216-167.765-201.216-167.765h-265.728zM989.867 602.283l-240.128 200.363c-5.803 4.779-13.141 7.509-20.821 7.509h-277.504v109.056c0 17.92-14.507 32.427-32.427 32.427s-32.427-14.507-32.427-32.427v-109.056h-331.776c-17.92 0-32.427-14.507-32.427-32.427v-400.555c0-17.92 14.507-32.427 32.427-32.427h331.605v-367.957c0-17.92 14.507-32.427 32.427-32.427s32.427 14.507 32.427 32.427v367.957h277.504c7.68 0 15.019 2.731 20.821 7.509l240.128 200.192c7.339 6.144 11.776 15.36 11.776 25.088 0 9.557-4.096 18.603-11.605 24.747z" />
<glyph unicode="&#xe925;" glyph-name="mapfre_041_iso" d="M512 883.541c-250.197 0-453.12-194.901-453.12-435.541s202.923-435.541 453.12-435.541 453.12 194.901 453.12 435.541-202.923 435.541-453.12 435.541zM512 929.28c276.651 0 500.907-215.552 500.907-481.28s-224.427-481.28-500.907-481.28c-276.651 0-500.907 215.381-500.907 481.28s224.256 481.28 500.907 481.28zM612.864 641.877c-32.427 11.093-66.56 16.555-100.864 16.555-34.987 0-68.437-5.632-99.328-16.043-0.853-0.341-1.707-0.683-2.56-1.195-10.24-4.096-17.067-13.995-17.237-25.088 0-5.803 1.877-11.264 5.291-15.872l100.181-159.403c2.389-4.608 7.68-8.021 13.653-8.021 5.461 0 10.752 2.901 13.312 7.851l100.181 159.403c3.584 4.608 5.632 10.411 5.632 16.213 0 11.435-7.339 21.675-18.261 25.6zM318.123 589.483l-0.683-0.512c-20.992-16.213-38.912-36.011-52.907-58.197-14.165-22.699-23.552-46.592-28.16-70.997-0.171-0.683-0.171-1.365-0.171-2.219-0.683-9.045 4.096-17.408 12.117-21.504 4.267-2.219 9.387-3.243 14.336-2.901l162.304 0.341c4.608-0.512 9.045 1.707 11.605 5.461 2.219 3.584 2.219 8.363-0.341 11.947l-80.896 130.048c-2.219 4.267-5.632 8.021-10.069 10.411-8.704 4.267-19.285 3.755-27.136-1.877zM705.877 589.483c-8.021 5.461-18.432 5.973-26.965 1.536-4.267-2.219-8.021-5.803-10.069-10.24l-80.896-130.219c-2.56-3.413-2.731-8.192-0.512-11.947 2.389-3.755 7.168-5.803 11.605-5.461l162.304-0.341c4.949-0.341 9.899 0.512 14.165 2.901 8.192 3.925 12.8 12.459 12.117 21.504 0 0.683 0 1.365-0.171 2.219-4.949 25.259-14.507 49.493-28.16 70.997-13.995 22.869-32.085 42.837-53.419 59.051zM536.064 388.608v-138.752h-48.299v138.752c-23.040 0-52.907 0.171-64.341 0.512l-159.573-0.341c-13.483-0.683-27.477 2.219-39.936 8.875-24.235 12.971-37.376 36.864-36.181 60.757 0 3.584 0.512 6.485 0.853 9.216 5.632 29.355 16.725 58.197 33.792 85.333 16.896 26.965 38.4 50.688 63.659 70.144 18.091 11.947 40.107 16.725 61.611 13.653 5.973 18.944 20.48 34.645 38.912 43.52 3.413 1.877 6.656 3.072 9.557 4.096 37.376 12.459 76.459 18.603 115.712 18.603 40.789 0 79.872-6.485 116.224-18.773 20.992-8.363 39.595-25.941 47.275-46.763 20.651 4.267 41.643 0.171 58.368-11.605 24.917-19.285 50.176-45.227 67.243-72.704 16.896-27.136 28.16-56.149 33.792-85.504 0.512-2.389 0.853-5.461 0.853-9.216 1.024-24.064-12.117-47.957-36.352-60.587-12.459-6.485-26.453-9.557-39.936-8.875l-159.573 0.341c-10.581-0.683-40.789-0.683-63.659-0.683z" />
<glyph unicode="&#xe926;" glyph-name="mapfre_040_calendar" d="M865.28 869.376h-81.579v81.579h-54.443v-81.579h-434.859v81.579h-54.443v-81.579h-81.408c-74.923 0-136.021-60.928-136.021-136.021v-652.288c0-74.923 60.928-136.021 136.021-136.021h706.731c74.923 0 136.021 60.928 136.021 136.021v652.459c0 74.752-60.928 135.851-136.021 135.851zM947.029 81.067c0-44.885-36.693-81.579-81.579-81.579h-706.901c-44.885 0-81.579 36.693-81.579 81.579v516.437h870.059v-516.437zM947.029 651.947h-870.059v81.579c0 44.885 36.693 81.579 81.579 81.579h81.579v-54.443h54.443v54.272h435.029v-54.443h54.443v54.443h81.579c44.885 0 81.579-36.693 81.579-81.579v-81.408zM457.557 325.632h108.715c30.037 0 54.443 24.405 54.443 54.443v108.715c0 30.037-24.405 54.443-54.443 54.443h-108.715c-30.037 0-54.443-24.405-54.443-54.443v-108.715c0.171-29.867 24.576-54.443 54.443-54.443zM457.557 488.789h108.715v-108.715h-108.885c0.171 0 0.171 108.715 0.171 108.715zM729.6 325.632h108.715c30.037 0 54.443 24.405 54.443 54.443v108.715c0 30.037-24.405 54.443-54.443 54.443h-108.715c-30.037 0-54.443-24.405-54.443-54.443v-108.715c0-29.867 24.405-54.443 54.443-54.443zM729.6 488.789h108.715v-108.715h-108.885l0.171 108.715zM185.685 53.931h108.715c30.037 0 54.443 24.405 54.443 54.443v108.715c0 30.037-24.405 54.443-54.443 54.443h-108.715c-30.037 0-54.443-24.405-54.443-54.443v-108.715c0.171-30.208 24.576-54.443 54.443-54.443zM185.685 216.917h108.715v-108.715h-108.715v108.715zM457.557 53.931h108.715c30.037 0 54.443 24.405 54.443 54.443v108.715c0 30.037-24.405 54.443-54.443 54.443h-108.715c-30.037 0-54.443-24.405-54.443-54.443v-108.715c0.171-30.208 24.576-54.443 54.443-54.443zM457.557 216.917h108.715v-108.715h-108.885c0.171-0.171 0.171 108.715 0.171 108.715zM729.6 53.931h108.715c30.037 0 54.443 24.405 54.443 54.443v108.715c0 30.037-24.405 54.443-54.443 54.443h-108.715c-30.037 0-54.443-24.405-54.443-54.443v-108.715c0-30.208 24.405-54.443 54.443-54.443zM729.6 216.917h108.715v-108.715h-108.885l0.171 108.715z" />
<glyph unicode="&#xe927;" glyph-name="mapfre_038_telephone" d="M202.752 949.695c-30.549-0.683-53.76-15.189-70.315-34.133l-90.112-102.912c-25.429-29.184-32.085-68.949-32.085-107.349 0-129.707 91.989-321.024 264.875-494.080 173.056-173.056 364.373-264.875 494.080-264.875 38.4 0 77.824 6.656 107.008 32.085l102.912 90.112c19.115 16.725 33.963 39.936 34.645 70.315 0.683 29.184-15.531 52.565-33.451 70.315l-141.483 141.483c-17.408 17.408-39.936 32.939-69.632 32.939-31.573 0-54.272-17.579-69.632-32.939 0 0-54.101-53.931-55.296-54.955-10.411-9.899-18.773-11.093-28.331-5.461l-262.144 262.144c-9.045 9.045-1.707 18.603 3.755 26.112 1.365 1.707 56.491 57.173 56.491 57.173 15.36 15.36 33.451 37.888 33.451 69.632 0 29.696-16.043 52.565-33.451 69.973l-141.483 141.483c-17.579 17.749-40.619 33.621-69.803 32.939zM236.544 880.234l141.483-141.483c14.507-14.507 18.091-19.115 18.091-33.451 0-13.995-5.291-20.139-18.091-32.939 0 0-55.125-55.467-56.832-57.173-10.752-12.288-18.603-25.6-21.163-40.448-2.389-22.016 0.683-41.301 13.653-54.613l270.165-270.165c13.995-12.971 38.912-16.213 54.613-13.653 14.677 2.56 27.477 10.069 39.424 20.651 2.048 1.707 57.856 57.344 57.856 57.344 12.8 12.8 19.285 18.091 33.451 18.091s18.944-3.584 33.451-18.091l141.483-141.483c12.459-12.459 18.261-24.405 18.091-32.597-0.512-20.139-1.365-18.944-16.896-32.597l-102.912-90.112c-13.824-12.117-41.643-19.627-73.216-19.627-103.936 0-292.181 84.309-457.899 250.027s-249.685 353.621-249.685 457.557c0 31.573 7.168 59.221 19.285 73.216l90.112 102.912c10.581 11.947 21.333 17.067 32.085 17.067 11.605-0.171 22.869-8.021 33.451-18.432z" />
<glyph unicode="&#xe928;" glyph-name="mapfre_037_user" d="M512.512 887.125c-22.869 0-45.568-4.949-67.925-15.189-21.504-9.728-41.813-22.869-60.416-38.912-17.749-15.701-32.256-32.768-43.179-51.029-10.923-18.432-16.384-35.669-16.384-52.053v-156.843c0-30.72 6.656-69.973 19.627-117.76 13.141-47.787 33.621-84.651 61.611-110.933 7.339-6.656 12.629-15.019 16.384-25.088 3.584-10.069 4.949-20.651 3.755-31.915-1.707-10.581-5.12-20.139-10.581-28.843-5.12-8.704-12.288-15.701-20.48-20.139l-235.349-130.56c-3.243-1.365-7.851-4.437-13.824-9.387s-8.704-13.995-8.704-26.965v-63.829l750.251 1.024v60.757c0 16.896-3.413 27.648-10.581 31.915-6.997 4.267-10.752 6.315-11.435 6.315l-233.813 129.536c-17.067 9.387-28.672 28.16-31.061 50.005-1.195 11.093 0.171 21.675 3.755 31.915s9.045 18.603 16.384 25.088c29.013 26.112 49.664 63.317 61.611 111.445 12.117 47.957 17.92 87.211 17.92 117.248v157.013c0 16.896-5.632 34.645-16.896 53.077s-25.6 35.157-43.179 50.688c-17.749 15.36-37.717 28.16-60.416 38.229-22.357 10.069-44.715 15.189-67.072 15.189v0zM512.512 949.931c29.696 0 58.88-6.656 87.552-19.627s54.443-30.037 77.141-51.029c22.528-20.992 41.131-44.373 55.296-70.656 14.165-26.112 21.504-52.395 21.504-78.507v-157.013c0-18.944-1.707-40.789-4.949-65.707s-8.875-50.176-16.896-76.117c-7.851-26.112-18.432-51.2-31.061-74.581-12.459-23.381-28.501-44.203-46.933-61.44l233.813-130.56 26.453-17.237c17.579-11.435 26.453-26.283 26.453-44.544v-95.232c0-16.896-5.12-31.573-15.531-43.691-9.728-11.776-23.211-18.432-37.205-18.091h-751.275c-15.019 0-27.819 5.973-38.059 18.091-10.069 11.435-15.701 27.136-15.531 43.691v95.232c0 16.896 8.875 31.573 26.965 43.691l26.795 18.091 235.52 130.56c-19.115 17.749-35.157 39.424-47.787 63.829-12.459 24.235-23.040 49.664-31.573 76.117-7.68 24.405-13.483 49.664-17.237 75.605-3.243 24.576-4.949 45.227-4.949 62.293v157.013c0 26.112 6.997 52.395 20.992 78.507s32.427 49.664 54.955 70.656c22.528 20.992 48.469 37.888 77.483 51.029s58.368 19.627 88.064 19.627v0z" />
<glyph unicode="&#xe929;" glyph-name="mapfre_036_notification" d="M933.888 198.827c-9.728 16.213-22.869 34.645-39.765 55.296-18.091 22.016-37.035 47.787-56.661 77.483s-29.525 60.416-29.525 92.16v202.752c0 43.861-7.509 85.163-22.869 123.563-15.189 38.4-36.181 72.021-62.976 100.864s-58.368 51.371-94.549 67.925c-36.181 16.555-75.264 24.747-117.248 24.747-40.107 0.341-79.872-8.192-116.395-24.747-35.669-16.043-67.584-39.083-94.037-67.925-26.965-29.355-48.128-63.659-62.635-100.864-15.189-38.4-22.869-79.701-22.869-123.563v-202.581c0-31.061-10.411-60.928-31.061-89.771-20.651-28.672-39.765-54.443-57.173-77.141-15.531-20.651-27.819-39.595-36.864-56.661-9.045-17.237-9.728-33.792-2.048-50.005 6.656-13.824 19.456-23.723 34.475-26.624 15.872-3.584 31.061-5.291 46.080-5.291h177.493c-0.683-44.032 16.725-86.528 48.469-117.248 30.72-31.573 73.216-49.152 117.248-48.469 44.203-0.683 86.528 16.725 117.419 48.469 31.573 30.72 49.152 73.216 48.469 117.248h181.419c13.653 0.341 27.307 1.707 40.789 3.925 16.725 2.048 31.061 12.8 37.888 28.16 7.68 16.043 6.656 32.085-3.072 48.299zM582.485 47.104c-19.627-19.627-43.52-29.525-71.339-29.525s-51.541 9.899-71.168 29.525c-19.627 19.627-29.525 43.52-29.525 71.168h201.728c-0.171-27.819-10.069-51.541-29.696-71.168zM865.109 184.32h-708.949c3.243 5.12 6.997 10.581 11.093 16.555 26.283 35.157 51.883 70.827 76.629 107.179 23.893 33.963 36.523 74.411 36.352 115.883v202.581c-0.171 33.451 5.632 66.56 17.408 97.963 11.605 30.379 27.819 56.832 48.469 79.531 20.651 22.528 45.568 40.789 73.216 53.76 28.331 13.312 59.392 20.139 90.624 19.797 31.573 0.341 62.976-6.485 91.648-19.797 27.648-12.971 52.565-31.232 73.216-53.76 21.163-23.211 37.717-50.176 48.981-79.531 11.947-30.379 17.92-62.976 17.92-97.963v-202.581c-0.341-42.155 11.605-83.456 34.475-118.784 23.552-37.376 49.664-72.875 77.995-106.667 3.925-4.779 7.509-9.387 10.923-14.165v0z" />
<glyph unicode="&#xe92a;" glyph-name="mapfre_044_logo_landing" horiz-adv-x="4178" d="M249.173 659.627c-116.053 0-210.944-94.208-210.944-210.944s94.208-210.944 210.944-210.944 210.944 94.208 210.944 210.944-94.208 210.944-210.944 210.944zM249.173 681.472c129.024 0 232.789-104.448 232.789-232.789 0-129.024-104.448-232.789-232.789-232.789s-232.107 104.448-232.107 232.789 103.765 232.789 232.107 232.789zM296.277 542.208c0 0 0 0 0 0-15.019 5.461-30.037 8.192-46.421 8.192s-32.085-2.731-46.421-7.509c-0.683-0.683-1.365-0.683-1.365-0.683-4.779-2.048-8.192-6.827-8.192-12.288 0-2.731 1.365-5.461 2.731-7.509l46.421-77.141c1.365-2.048 3.413-4.096 6.144-4.096s4.779 1.365 6.144 3.413l46.421 77.141c2.048 2.048 2.731 4.779 2.731 7.509 0.683 6.827-3.413 10.923-8.192 12.971zM159.744 517.632c0 0-0.683 0 0 0-10.24-8.192-18.432-17.749-25.259-28.672s-10.923-22.528-12.971-34.133c0-0.683 0-0.683 0-1.365-0.683-4.096 2.048-8.192 5.461-10.24 2.048-1.365 4.096-2.048 6.827-1.365l75.093 0.683c2.048-0.683 4.096 0.683 5.461 2.731s1.365 4.096-0.683 5.461l-37.547 62.805c-1.365 2.048-2.731 4.096-4.779 4.779-3.413 2.048-8.192 1.365-11.605-0.683zM339.285 517.632c-3.413 2.731-8.192 3.413-12.971 0.683-2.048-1.365-4.096-2.731-4.779-4.779l-37.547-62.805c-1.365-2.048-1.365-4.096-0.683-5.461 1.365-2.048 3.413-2.731 5.461-2.731l75.093-0.683c2.048-0.683 4.779 0.683 6.827 1.365 4.096 2.048 6.144 6.144 5.461 10.24 0 0.683 0 0.683 0 1.365-2.048 11.605-6.144 23.211-12.971 34.133s-15.019 20.48-24.576 27.989c1.365 0 1.365 0 0.683 0.683zM260.779 420.011v-66.901h-22.528v66.901c-10.923 0-24.576 0-30.037 0.683h-74.411c-6.144-0.683-12.971 1.365-18.432 4.096-11.605 6.144-17.067 17.749-17.067 29.355 0 2.048 0.683 3.413 0.683 4.096 2.731 14.336 7.509 27.989 15.701 41.643 7.509 12.971 17.749 24.576 30.037 34.133 7.509 5.461 18.432 8.192 28.672 6.827 2.731 8.875 9.557 16.384 17.749 21.163 2.048 1.365 3.413 1.365 4.779 2.048 17.067 6.144 34.816 8.875 53.931 8.875s36.864-3.413 53.931-8.875c9.557-4.096 18.432-12.288 21.845-22.528 9.557 2.048 19.115 0 27.307-5.461 11.605-8.875 23.211-21.845 31.403-34.816 7.509-12.971 12.971-27.307 15.701-41.643 0.683-1.365 0.683-2.731 0.683-4.096 0.683-11.605-5.461-23.211-17.067-29.355-5.461-3.413-12.288-4.779-18.432-4.096h-74.411c-5.461-2.048-19.797-2.048-30.037-2.048zM905.216 689.664l120.149-241.664 119.467 241.664h182.272v-483.328h-182.272v241.664l-119.467-241.664-120.149 241.664v-241.664h-181.589v483.328zM1387.179 206.336l141.312 482.645h320.853l141.312-482.645h-181.589l-23.211 79.189h-193.877l-23.211-79.189h-181.589zM1688.917 617.301l-73.728-252.587h147.456l-73.728 252.587zM2390.699 689.664h-339.285v-482.645h180.907v200.704h158.379c79.189 0 143.36 62.805 143.36 141.312 0 77.141-64.171 140.629-143.36 140.629v0zM2274.645 634.368c40.277 0 81.237-21.845 81.237-65.536s-35.499-79.872-81.237-79.872h-39.595v145.408h39.595zM2592.085 689.664h483.328v-79.872h-301.739v-122.88h301.739v-78.507h-301.739v-202.069h-181.589zM3859.797 286.208h301.056v-79.872h-482.645v483.328h482.645v-79.872h-301.056v-122.88h301.056v-78.507h-301.056zM3618.133 327.168c0 1.365 0 2.048 0 4.096-2.048 64.853-55.979 116.736-122.88 116.736 67.584 0 122.88 53.931 122.88 120.832s-55.296 120.832-122.88 120.832h-360.448v-483.328h184.32v200.704h38.912c44.373 0 81.237-35.499 81.237-79.189 0-1.365 0-2.048 0-4.096v-116.736h178.176v120.149zM3618.133 331.264v-4.096c0 1.365 0 2.731 0 4.096v0zM3358.72 633.685c39.595 0 81.237-21.845 81.237-65.536s-35.499-79.189-81.237-79.189h-38.912v143.36h38.912v1.365z" />
<glyph unicode="&#xe92b;" glyph-name="mapfre_045_call" d="M515.755 947.029c-275.627 0-499.029-224.256-499.029-500.736s223.403-500.736 498.859-500.736 498.859 224.256 498.859 500.736-223.232 500.736-498.688 500.736zM515.755-14.165c-248.32 0-449.707 206.165-449.707 460.459s201.387 460.459 449.536 460.459 449.707-206.165 449.707-460.459-201.387-460.459-449.536-460.459zM807.253 328.533c-3.584 5.632-12.459 9.045-26.283 15.872-13.653 6.827-81.237 39.936-93.867 44.373s-21.675 6.827-30.891-6.827-35.499-44.373-43.52-53.589c-8.021-9.216-16.043-10.24-29.696-3.584-13.653 6.827-57.856 21.333-110.421 67.755-40.789 36.352-68.437 81.067-76.288 94.72-8.021 13.653-0.853 21.163 5.973 27.819 6.144 6.144 13.653 15.872 20.651 23.893 6.827 8.021 9.216 13.653 13.653 22.699s2.389 17.067-1.195 23.893c-3.413 6.827-30.891 74.069-42.325 101.547-11.435 27.307-22.869 22.699-30.891 22.699s-17.237 1.195-26.283 1.195c-9.216 0-24.064-3.413-36.693-17.067-12.459-13.653-47.957-46.763-47.957-113.835s49.152-132.096 55.979-141.312c6.827-9.045 94.891-151.552 234.325-206.336s139.435-36.523 164.693-34.133c25.088 2.389 81.067 32.939 92.672 65.024 11.605 32.256 11.605 59.563 8.363 65.195z" />
<glyph unicode="&#xe92c;" glyph-name="mapfre_046_close" d="M512 949.589c-276.992 0-501.589-224.597-501.589-501.589s224.597-501.589 501.589-501.589 501.589 224.597 501.589 501.589-224.597 501.589-501.589 501.589zM586.069 265.557l-61.269 105.301-68.267-105.301h-125.099l117.419 176.811-109.739 168.448h130.219l55.467-96.939 60.075 96.939h124.416l-109.056-168.277 116.736-176.811-130.901-0.171z" />
<glyph unicode="&#xe92d;" glyph-name="mapfre_047_bars" d="M12.629 115.029h998.741v110.933h-998.741v-110.933zM12.629 392.533h998.741v110.933h-998.741v-110.933zM12.629 780.971v-110.933h998.741v110.933h-998.741z" />
<glyph unicode="&#xe92e;" glyph-name="mapfre_049_close2" d="M570.368 448l143.36 143.36c7.851 7.851 12.117 18.261 12.117 29.184 0 11.093-4.267 21.504-12.117 29.184-7.851 7.851-18.261 12.117-29.184 12.117s-21.504-4.267-29.184-12.117l-143.36-143.36-143.36 143.36c-7.851 7.851-18.261 12.117-29.184 12.117-11.093 0-21.504-4.267-29.184-12.117-7.851-7.851-12.117-18.261-12.117-29.184s4.267-21.504 12.117-29.184l143.36-143.36-143.36-143.36c-7.851-7.851-12.117-18.261-12.117-29.184 0-11.093 4.267-21.504 12.117-29.184 7.851-7.851 18.261-12.117 29.355-12.117s21.504 4.267 29.355 12.117l143.36 143.36 143.36-143.36c7.851-7.851 18.261-12.117 29.355-12.117s21.504 4.267 29.355 12.117c7.851 7.851 12.117 18.261 12.117 29.184 0 11.093-4.267 21.504-12.117 29.184l-144.043 143.36zM512 942.080c-272.896 0-494.080-221.184-494.080-494.080s221.184-494.080 494.080-494.080 494.080 221.184 494.080 494.080-221.184 494.080-494.080 494.080zM512 36.352c-227.499 0-411.648 184.32-411.648 411.648s184.32 411.648 411.648 411.648 411.819-184.32 411.819-411.648-184.32-411.648-411.819-411.648z" />
<glyph unicode="&#xe92f;" glyph-name="mapfre_050_agendar" horiz-adv-x="791" d="M613.495 351.16h-48.485v-72.533h-72.663v-48.356h72.663v-72.663h48.356v72.663h72.663v48.356h-72.663v72.533zM589.317 448c-106.796 0-193.681-86.885-193.681-193.681s86.885-193.681 193.681-193.681 193.681 86.885 193.681 193.681-87.014 193.681-193.681 193.681zM589.317 109.123c-80.162 0.129-145.067 65.034-145.196 145.196 0.129 80.162 65.034 145.067 145.196 145.196 80.162-0.129 145.067-65.034 145.196-145.196-0.129-80.162-65.034-145.067-145.196-145.196zM758.691 786.877h-121.018v48.356h-48.356v-48.356h-169.374v48.356h-48.356v-48.356h-169.374v48.356h-48.356v-48.356h-121.277c-13.317 0-24.178-10.861-24.178-24.178v-677.624c0-13.317 10.861-24.178 24.178-24.178h338.877v48.356h-314.699v411.41h677.624v-72.663h48.356v314.57c0.129 13.446-10.731 24.307-24.048 24.307zM56.76 569.018v169.374h96.84v-96.84h48.356v96.84h169.374v-96.84h48.356v96.84h169.374v-96.84h48.356v96.84h96.84v-169.374h-677.495z" />
<glyph unicode="&#xe930;" glyph-name="mapfre_053_eliminar" d="M880.811 786.091c8.363 0 15.531-3.072 21.504-9.216 6.144-6.144 9.216-13.141 9.216-21.504s-3.072-15.531-9.216-21.504-13.141-9.216-21.504-9.216h-42.155l-71.851-708.779c-1.195-16.555-8.021-30.72-20.651-42.155-12.459-11.435-26.965-17.237-43.691-17.237h-381.099c-16.555 0-31.061 5.803-43.691 17.237-12.459 11.435-19.627 25.6-21.504 42.155l-70.827 708.949h-42.155c-8.363 0-15.531 3.072-21.504 9.216-6.144 6.144-9.216 13.141-9.216 21.504s3.072 15.531 9.216 21.504c6.144 6.144 13.141 9.216 21.504 9.216h215.552v83.115c0 19.797 6.997 36.352 20.992 49.835s30.72 20.139 49.835 20.139h164.693c19.115 0 35.84-6.656 49.835-20.139s20.992-30.037 20.992-49.835v-83.285h215.723zM420.011 869.376v-83.285h183.808v83.285c0 2.56-1.024 4.779-2.901 6.656s-4.096 2.901-6.656 2.901h-164.693c-2.56 0-4.779-1.024-6.656-2.901s-2.901-4.096-2.901-6.656zM706.56 21.675l69.973 702.976h-528.896l69.973-702.976c0-0.683 0.512-1.536 1.536-2.389 1.024-1.024 1.707-1.536 2.389-1.536h381.099c0.683 0 1.536 0.341 2.389 1.024s1.536 1.707 1.536 2.901z" />
<glyph unicode="&#xe931;" glyph-name="mapfre_051_alerta" d="M458.478 453.102c2.116-37.643 34.406-68.159 57.189-68.159 30.885 0 57.638 30.525 59.753 68.159l10.552 187.756c2.116 37.643-26.737 68.159-64.437 68.159h-9.172c-37.703 0-66.552-30.525-64.437-68.159l10.552-187.756zM514.079 322.398c-33.195 0-60.105-26.816-60.105-59.894s26.91-59.894 60.105-59.894c33.195 0 60.105 26.816 60.105 59.894s-26.91 59.894-60.105 59.894zM512 960c-282.77 0-512-229.23-512-512s229.23-512 512-512c282.77 0 512 229.23 512 512s-229.23 512-512 512zM512 891.733c245.067 0 443.733-198.666 443.733-443.733s-198.666-443.733-443.733-443.733c-245.067 0-443.733 198.666-443.733 443.733s198.666 443.733 443.733 443.733z" />
<glyph unicode="&#xe932;" glyph-name="mapfre_048_tooltip" horiz-adv-x="791" d="M395.636 836.525c-214.626 0-388.525-173.899-388.525-388.525s173.899-388.525 388.525-388.525 388.525 174.028 388.525 388.525-174.028 388.525-388.525 388.525zM480.84 233.115c-21.721-8.275-39.046-14.61-51.976-19.006s-27.927-6.594-45.123-6.594c-26.246 0-46.804 6.206-61.285 18.747-14.61 12.412-21.851 28.315-21.851 47.451 0 7.499 0.517 15.127 1.552 22.885 1.164 7.758 2.844 16.549 5.301 26.376l27.152 93.349c2.457 8.921 4.525 17.455 6.077 25.341 1.681 8.016 2.457 15.257 2.457 21.98 0 11.895-2.586 20.17-7.628 24.824-5.172 4.655-14.739 6.982-29.091 6.982-6.982 0-14.222-1.034-21.592-3.103-7.37-2.198-13.705-4.137-18.877-6.077l7.24 28.703c17.842 6.982 34.78 13.059 51.071 18.101s31.677 7.628 46.028 7.628c26.117 0 46.287-6.206 60.38-18.36 14.093-12.283 21.204-28.186 21.204-47.709 0-4.008-0.517-11.248-1.422-21.463s-2.844-19.523-5.43-28.186l-27.022-92.962c-2.198-7.499-4.137-16.032-5.947-25.6s-2.586-16.808-2.586-21.721c0-12.412 2.844-20.816 8.533-25.212 5.689-4.525 15.515-6.723 29.479-6.723 6.594 0 13.964 1.164 22.368 3.362 8.275 2.198 14.352 4.137 18.101 5.947l-7.111-28.962zM471.919 593.713c-10.861-10.731-23.919-16.162-39.176-16.162s-28.315 5.43-39.305 16.162c-10.861 10.731-16.291 23.919-16.291 39.176s5.56 28.444 16.291 39.305c10.861 10.861 24.048 16.291 39.305 16.291s28.315-5.43 39.176-16.291c10.861-10.861 16.291-24.048 16.291-39.305-0.129-15.386-5.56-28.444-16.291-39.176z" />
<glyph unicode="&#xe933;" glyph-name="mapfre_052_agregar" d="M855.381 791.381c47.275-47.275 82.944-100.864 107.008-160.597s35.84-120.661 35.84-182.784-11.947-123.051-35.84-182.784-59.563-113.152-107.008-160.597c-47.275-47.275-100.864-82.944-160.597-107.008s-120.661-35.84-182.784-35.84-123.051 11.947-182.784 35.84-113.152 59.563-160.597 107.008c-47.275 47.275-82.944 100.864-107.008 160.597s-35.84 120.661-35.84 182.784 11.947 123.051 35.84 182.784 59.563 113.152 107.008 160.597 100.864 82.944 160.597 107.008 120.661 35.84 182.784 35.84 123.051-11.947 182.784-35.84 113.152-59.563 160.597-107.008zM210.944 146.944c41.472-41.472 88.576-72.533 140.8-93.184 52.224-20.48 105.643-30.72 159.915-30.379s107.52 10.581 159.915 31.232c52.395 20.651 99.328 51.541 140.8 93.184 41.472 41.472 72.533 88.576 93.184 140.8 20.48 52.224 30.891 105.472 30.891 159.573s-10.24 107.179-30.891 159.573c-20.651 52.395-51.541 99.328-93.184 140.8s-88.576 72.533-140.8 93.184c-52.224 20.48-105.472 30.891-159.573 30.891s-107.179-10.24-159.573-30.891c-52.224-20.48-99.328-51.541-140.8-93.184s-72.533-88.576-93.184-140.8-31.061-105.472-31.403-159.915 9.899-107.52 30.379-159.915 52.053-99.499 93.525-140.971zM754.859 448c0-8.021-3.072-15.189-9.045-21.163s-12.971-9.045-21.163-9.045h-182.613v-182.443c0-8.021-3.072-15.189-9.045-21.163s-12.971-9.045-21.163-9.045-15.189 3.072-21.163 9.045c-5.973 5.973-9.045 12.971-9.045 21.163v182.613h-182.101c-8.021 0-15.189 3.072-21.163 9.045s-9.045 12.971-9.045 21.163 3.072 15.189 9.045 21.163c5.973 5.973 12.971 9.045 21.163 9.045h182.443v182.101c0 8.021 3.072 15.189 9.045 21.163s12.971 9.045 21.163 9.045 15.189-3.072 21.163-9.045 9.045-12.971 9.045-21.163v-182.443h182.443c8.021 0 15.189-3.072 21.163-9.045 5.803-5.803 8.875-12.971 8.875-20.992z" />
<glyph unicode="&#xe934;" glyph-name="mapfre_050_construction" d="M926.037 212.139h-831.488c-16.384 0-29.696 13.141-29.696 29.355s13.312 29.355 29.696 29.355h831.488c16.384 0 29.696-13.141 29.696-29.355s-13.312-29.355-29.696-29.355zM678.059 35.84h-335.531c-84.139-0.171-161.792 45.056-202.752 117.931h741.205c-41.131-72.875-118.784-118.101-202.923-117.931zM124.075 417.792c0 108.032 46.763 208.384 123.392 279.211l43.861-130.731c12.117-36.011 45.909-60.245 84.139-60.245h105.131v-176.299h-356.693v88.064h0.171zM374.443 775.168l40.96-210.432h-39.765c-12.8 0-23.893 8.021-27.989 20.139l-50.688 150.869c24.064 15.872 50.176 29.184 77.483 39.424v0zM441.003 839.851c42.667 24.747 95.573 24.747 138.411 0 10.24-5.803 15.531-18.603 13.141-30.891l-47.445-244.395h-69.461l-47.445 244.395c-2.56 12.459 2.901 25.088 12.8 30.891zM646.144 775.168c27.136-10.24 53.248-23.381 77.483-39.424l-50.688-150.869c-3.925-11.947-15.36-20.139-27.989-20.139h-39.765l40.96 210.432zM772.949 697.003c76.629-70.827 123.392-171.179 123.392-279.211v-88.064h-356.352v176.128h105.131c38.229 0 72.192 24.235 84.139 60.245l43.691 130.901zM955.733 324.608v93.184c0 97.792-32.085 190.464-92.501 267.947-54.613 69.973-129.024 122.197-213.504 150.357-5.461 22.869-20.139 42.667-40.619 54.613-61.099 35.328-136.704 35.328-197.803 0-20.48-11.947-35.157-31.744-40.448-54.613-84.48-28.16-158.891-80.384-213.504-150.357-60.416-77.653-92.501-170.325-92.501-267.947v-93.184c-35.157-12.629-59.051-45.909-59.051-83.115 0-40.448 27.648-75.605 67.072-85.504 20.651-50.176 55.125-93.525 99.669-124.757 49.493-35.157 108.885-54.101 169.813-54.101h335.531c61.099 0 119.808 18.773 169.813 54.101 44.544 31.403 79.189 74.581 99.669 124.757 39.424 9.899 67.072 45.056 67.072 85.504 0.341 37.205-23.552 70.485-58.709 83.115v0z" />
<glyph unicode="&#xe935;" glyph-name="mapfre_055_card" d="M910.677 769.877c25.6 0 47.275-8.875 65.195-26.795s26.795-39.595 26.795-65.195v-459.947c0-25.6-8.875-47.275-26.795-65.195s-39.595-26.795-65.195-26.795h-797.355c-25.6 0-47.275 8.875-65.195 26.795s-26.795 39.595-26.795 65.195v459.947c0 25.6 8.875 47.275 26.795 65.195s39.595 26.795 65.195 26.795h797.355zM113.323 708.608c-8.363 0-15.531-3.072-21.504-9.045-6.144-6.144-9.045-13.312-9.045-21.504v-61.269h858.453v61.269c0 8.363-3.072 15.531-9.045 21.504-6.144 6.144-13.312 9.045-21.504 9.045h-797.355zM910.677 187.392c8.363 0 15.531 3.072 21.504 9.045 6.144 6.144 9.045 13.312 9.045 21.504v275.968h-858.453v-275.968c0-8.363 3.072-15.531 9.045-21.504 6.144-6.144 13.312-9.045 21.504-9.045h797.355z" />
<glyph unicode="&#xe936;" glyph-name="mapfre_056_wallet" d="M1000.96 659.968v-563.541c0-25.429-8.875-47.104-26.795-65.024-17.749-17.749-39.424-26.795-65.024-26.795h-794.453c-25.429 0-47.104 8.875-65.024 26.795-17.749 17.749-26.795 39.424-26.795 65.024v489.131c0 24.917 8.875 46.080 26.795 64 17.749 17.749 39.083 27.136 64 27.648h30.549v122.368c0 25.429 9.045 47.104 27.307 65.024 18.091 17.749 39.595 26.795 64.512 26.795l690.517-137.557c34.304-9.557 55.467-24.917 62.976-45.909 7.68-21.163 11.435-37.035 11.435-47.957zM205.483 799.573v-122.197h673.451c12.117-0.683 20.139 1.877 23.893 7.68l5.803 8.533-674.304 136.533c-8.363-0.683-15.189-3.755-20.48-9.557-5.803-5.803-8.363-12.8-8.363-20.992zM939.861 96.427v550.229c0-10.24-6.485-17.749-19.627-22.869-12.971-5.12-26.965-7.68-41.472-7.68h-764.075c-8.363 0-15.36-3.072-21.504-9.045-5.973-5.973-9.045-13.141-9.045-21.504v-489.131c0-8.363 3.072-15.36 9.045-21.504 5.973-5.973 13.141-9.045 21.504-9.045h794.624c8.363 0 15.36 3.072 21.504 9.045 6.144 6.144 9.045 13.312 9.045 21.504zM206.336 402.091c16.555 0 30.891-5.973 43.008-18.091s18.091-26.453 18.091-43.008c0-17.237-5.973-31.744-18.091-43.52s-26.453-17.749-43.008-17.749c-17.237 0-31.744 5.973-43.52 17.749s-17.749 26.283-17.749 43.52c0 16.555 5.973 30.891 17.749 43.008 11.947 12.117 26.283 18.091 43.52 18.091z" />
<glyph unicode="&#xe937;" glyph-name="mapfre_057_circle-check" d="M512 960c70.667 0 137.166-13.333 199.5-40s116.666-63.166 163-109.5c46.334-46.334 82.833-100.666 109.5-163s40-128.833 40-199.5c0-70.667-13.333-137.166-40-199.5s-63.166-116.666-109.5-163c-46.334-46.334-100.666-82.833-163-109.5s-128.833-40-199.5-40c-70.667 0-137.166 13.333-199.5 40s-116.666 63.166-163 109.5c-46.334 46.334-82.833 100.666-109.5 163s-40 128.833-40 199.5c0 70.667 13.333 137.166 40 199.5s63.166 116.666 109.5 163c46.334 46.334 100.666 82.833 163 109.5s128.833 40 199.5 40zM512 1.641c62 0 120.166 11.82 174.5 35.46s101.666 55.771 142 96.392c40.334 40.622 72.333 88.068 96 142.341s35.5 112.374 35.5 174.305c0 61.931-11.833 120.032-35.5 174.305s-55.666 101.553-96 141.842c-40.334 40.289-87.666 72.253-142 95.893s-112.5 35.46-174.5 35.46c-62 0-120.166-11.82-174.5-35.46s-101.666-55.604-142-95.893c-40.334-40.289-72.333-87.569-96-141.842s-35.5-112.374-35.5-174.305c0-61.931 11.833-120.032 35.5-174.305s55.666-101.72 96-142.341c40.334-40.622 87.666-72.752 142-96.392s112.5-35.46 174.5-35.46zM730.059 627.678c6.667 6.496 14.333 9.744 23 9.744s16.333-3.248 23-9.744c6-5.846 9-13.154 9-21.923s-3-16.077-9-21.923l-323-316.667c-6-6.496-13.5-9.744-22.5-9.744s-16.5 3.248-22.5 9.744l-159 153.949c-6 5.846-9 13.154-9 21.923s3 16.077 9 21.923c6.667 6.496 14.333 9.744 23 9.744s16.333-3.248 23-9.744l135-131.538 300 294.256z" />
<glyph unicode="&#xe938;" glyph-name="mapfre_058_file" d="M116.715-11.922v919.845h509.189v-253.879c0-23.918 19.675-43.41 43.867-43.41h237.515v-622.555h-790.571zM872.901 662.711h-194.32v205.312l194.32-205.312zM959.701 638.281c-0.149 2.121-0.56 4.206-1.195 6.254-0.299 0.841-0.485 1.682-0.859 2.487-1.157 2.67-2.651 5.23-4.779 7.461l-281.381 297.289c-2.501 2.633-5.488 4.645-8.661 6.034-0.672 0.256-1.456 0.219-2.165 0.475-2.613 0.878-5.227 1.573-7.989 1.646-0.112 0-0.261 0.073-0.411 0.073h-544.32c-24.267 0-43.941-19.456-43.941-43.374v-937.216c0-23.954 19.675-43.41 43.941-43.41h808.117c24.267 0 43.941 19.456 43.941 43.41v657.262c0 0.549-0.261 1.061-0.299 1.609zM231.851 594.597h232.176c14.523 0 26.357 11.666 26.357 26.039s-11.835 26.039-26.357 26.039h-232.176c-14.56 0-26.357-11.666-26.357-26.039s11.797-26.039 26.357-26.039zM679.813 497.47h-447.963c-14.56 0-26.357-11.666-26.357-26.039s11.797-26.039 26.357-26.039h447.963c14.56 0 26.357 11.666 26.357 26.039s-11.797 26.039-26.357 26.039zM679.813 334.347h-447.963c-14.56 0-26.357-11.666-26.357-26.039s11.797-26.039 26.357-26.039h447.963c14.56 0 26.357 11.666 26.357 26.039s-11.797 26.039-26.357 26.039zM679.813 171.22h-447.963c-14.56 0-26.357-11.666-26.357-26.039 0-14.336 11.797-26.002 26.357-26.002h447.963c14.56 0 26.357 11.666 26.357 26.002 0 14.373-11.797 26.039-26.357 26.039z" />
<glyph unicode="&#xe939;" glyph-name="mapfre_059_download" d="M757.589 693.419c35.328-3.925 68.437-13.653 99.328-29.184s58.197-35.669 81.237-59.904c23.211-24.405 41.472-52.395 54.784-83.797 13.483-31.403 19.968-65.024 19.968-100.864 0-33.792-5.461-67.584-16.555-101.205-11.093-33.792-27.136-64-48.469-91.136-21.163-27.136-47.275-49.152-77.824-66.731-30.72-17.579-65.536-26.965-104.619-28.331-8.363 0-15.872 3.072-22.016 9.216s-9.216 13.483-9.216 21.845 3.072 15.701 9.216 21.845c6.144 6.144 13.653 9.216 22.016 9.216h8.704c26.795 0 51.029 6.656 72.875 19.968s40.619 30.72 56.32 52.565c15.701 21.675 27.648 45.909 36.352 72.533 8.363 26.624 12.8 53.077 12.8 79.872 0 29.184-5.803 56.661-17.579 82.261s-27.648 47.957-47.957 67.243c-20.139 19.285-43.349 34.475-69.632 45.739-26.283 11.435-53.76 17.067-83.115 17.067l-22.528 1.024-6.827 21.333c-16.213 52.053-42.496 92.331-78.848 121.173s-85.333 43.349-147.285 43.349c-39.083 0-74.411-6.656-105.643-19.968s-58.539-31.403-81.067-55.296c-22.528-23.723-39.765-52.053-51.883-84.821s-18.091-68.096-18.091-105.643h1.024l2.048-29.184-28.331-4.779c-34.475-5.632-63.659-24.064-87.893-55.296-24.235-31.061-36.352-66.219-36.352-105.131 0-44.203 14.848-82.432 44.544-114.859s64.683-48.64 105.131-48.64h27.307c9.045 0 16.555-3.072 22.528-9.216s8.704-13.483 8.704-21.845-2.901-15.701-8.704-21.845c-5.803-6.144-13.483-9.216-22.528-9.216h-27.307c-28.672 0-55.808 5.973-81.237 18.091s-47.787 28.331-67.072 49.152c-19.285 20.651-34.645 44.715-46.080 72.021s-17.067 56.149-17.067 86.528c0 50.005 13.995 95.061 41.984 135.339s64 67.243 107.691 80.725c2.731 43.52 12.288 83.968 28.843 121.173s38.741 69.632 66.56 97.451 60.245 49.152 97.963 64.683c37.547 15.531 79.189 23.381 124.757 23.381 35.328 0 67.584-4.267 96.939-13.141 29.355-8.704 55.808-21.163 79.36-37.376s43.691-36.181 60.587-59.392c17.237-23.552 31.061-49.493 42.155-77.995zM643.243 192l7.851-6.827c4.608-4.437 6.827-9.387 6.827-14.507s-2.389-10.069-6.827-14.507l-115.541-125.611v-1.024l-7.851-7.851c-2.731-2.731-5.291-4.267-7.851-5.291-2.731-1.024-5.461-1.536-8.704-1.536-2.731 0-5.461 0.512-8.363 1.536s-5.461 2.901-7.339 5.291l-7.851 7.851v1.024l-113.835 123.392c-4.608 4.437-6.827 10.069-6.827 16.555s2.389 12.117 6.827 16.555l7.851 4.779c4.608 4.437 9.899 6.485 16.213 5.803 6.144-0.683 11.605-3.243 16.213-7.851l66.56-74.069v313.685c0 8.363 2.901 15.701 8.704 21.845s13.483 9.216 22.528 9.216c8.363 0 15.872-3.072 22.016-9.216s9.216-13.483 9.216-21.845v-313.515l68.608 75.947c4.608 4.437 9.899 6.827 16.213 6.827 6.315 0.171 11.264-2.219 15.36-6.656z" />
<glyph unicode="&#xe93a;" glyph-name="mapfre_060_mail" d="M1006.251 710.656c0.683-1.365 1.024-2.56 1.024-3.755v-484.011c0-25.088-6.485-48.811-19.456-71.339s-32.256-33.792-58.027-33.792h-804.693c-25.771 0-50.347 11.264-73.557 33.792s-34.816 46.251-34.816 71.339v484.011c0 1.365 0.341 2.56 1.024 3.755-1.365 4.267-1.365 8.704 0 12.629s3.413 8.021 6.827 11.776c0.683 0.683 1.365 1.365 2.048 2.389s1.707 1.707 2.901 2.389c9.557 12.459 23.381 22.016 41.131 28.501s36.011 9.728 54.613 9.728h804.864c20.651 0 37.205-4.096 49.835-12.629s20.821-20.992 24.747-38.059c1.365-2.56 2.219-5.12 2.56-8.021-0.171-2.56-0.341-5.461-1.024-8.704zM110.592 718.165c-5.12 0-10.24-0.341-15.36-1.024l416.768-322.56 417.963 323.584h-819.371zM929.963 177.835c8.533 0 13.141 5.461 14.165 16.384s1.536 20.48 1.536 28.501v429.739l-413.355-319.829c-3.072-2.56-6.485-4.267-9.557-5.632s-6.827-1.877-10.581-1.877-7.509 0.683-10.581 1.877c-3.072 1.365-6.485 3.072-9.557 5.632l-413.525 319.829v-429.568c0-8.192 5.632-17.579 16.896-28.501s20.992-16.384 29.525-16.384h805.035z" />
<glyph unicode="&#xe93b;" glyph-name="mapfre_061_questions" d="M512 951.296c-277.504 0-503.296-225.792-503.296-503.296s225.792-503.296 503.296-503.296 503.296 225.792 503.296 503.296-225.792 503.296-503.296 503.296v0zM512 41.301c-224.256 0-406.699 182.443-406.699 406.699s182.443 406.699 406.699 406.699 406.699-182.443 406.699-406.699-182.443-406.699-406.699-406.699v0zM525.483 723.115c-95.061 0-136.875-56.149-153.259-89.259-13.653-27.648-13.141-51.712-12.971-56.32l87.723 4.437v-1.365c0 0 0.171 6.656 4.096 14.336 13.312 27.136 37.717 40.277 74.411 40.277 25.088 0 44.373-6.997 58.539-21.333 22.187-22.357 26.453-55.808 26.453-63.488 0-10.24-3.584-63.147-68.949-97.109-54.613-28.331-85.845-83.968-85.845-152.576v-26.112l87.893 0.171v25.941c0 24.747 6.656 57.856 38.571 74.411 110.080 57.173 116.224 155.477 116.395 174.592 0.171 27.136-10.581 84.309-52.053 125.781-30.72 31.403-72.533 47.616-121.003 47.616v0zM455.851 166.059h87.893v69.12h-87.893v-69.12z" />
<glyph unicode="&#xe93c;" glyph-name="mapfre_062_reloj" d="M512 954.539c-277.504 0-503.467-226.987-503.467-505.685s225.963-505.685 503.467-505.685 503.467 226.816 503.467 505.685-225.963 505.685-503.467 505.685v0zM512 20.992c-234.837 0-425.984 192-425.984 427.861s191.147 427.861 425.984 427.861 425.984-192 425.984-427.861-191.147-427.861-425.984-427.861v0zM512 834.048c-21.333 0-38.741-17.408-38.741-38.912v-329.728l-178.176-171.861c-15.531-14.848-16.043-39.424-1.024-54.955 7.509-7.851 17.749-11.947 27.989-11.947 9.557 0 19.285 3.584 26.965 10.752l189.952 183.296c7.509 7.339 11.947 17.408 11.947 27.989v346.453c-0.171 21.504-17.579 38.912-38.912 38.912v0z" />
<glyph unicode="&#xe93d;" glyph-name="mapfre_063_agendar" d="M954.027 858.453c17.749 0 32.768-6.144 44.885-18.261s18.261-27.136 18.261-44.885v-789.333c0-17.067-6.144-31.915-18.261-44.373s-27.136-18.773-44.885-18.773h-884.053c-17.749 0-32.768 6.315-44.885 18.773s-18.261 27.307-18.261 44.373v789.333c0 17.749 6.144 32.768 18.261 44.885s27.136 18.261 44.885 18.261h252.587v63.147c0 8.533 3.072 15.872 9.387 22.187s13.653 9.387 22.187 9.387 15.872-3.072 22.187-9.387 9.387-13.653 9.387-22.187v-63.147h252.587v63.147c0 8.533 3.072 15.872 9.387 22.187s13.653 9.387 22.187 9.387 15.872-3.072 22.187-9.387 9.387-13.653 9.387-22.187v-63.147h252.587zM954.027 5.973v789.333h-252.587v-31.573c0-8.533-3.072-15.872-9.387-22.187s-13.653-9.387-22.187-9.387-15.872 3.072-22.187 9.387-9.387 13.653-9.387 22.187v31.573h-252.587v-31.573c0-8.533-3.072-15.872-9.387-22.187s-13.653-9.387-22.187-9.387-15.872 3.072-22.187 9.387-9.387 13.653-9.387 22.187v31.573h-252.587v-789.333h884.053zM733.013 448c-8.533 0-15.872 3.072-22.187 9.387s-9.387 13.653-9.387 22.187v63.147c0 8.533 3.072 15.872 9.387 22.187s13.653 9.387 22.187 9.387h63.147c8.533 0 15.872-3.072 22.187-9.387s9.387-13.653 9.387-22.187v-63.147c0-8.533-3.072-15.872-9.387-22.187s-13.653-9.387-22.187-9.387h-63.147zM733.013 195.413c-8.533 0-15.872 3.072-22.187 9.387s-9.387 13.653-9.387 22.187v63.147c0 8.533 3.072 15.872 9.387 22.187s13.653 9.387 22.187 9.387h63.147c8.533 0 15.872-3.072 22.187-9.387s9.387-13.653 9.387-22.187v-63.147c0-8.533-3.072-15.872-9.387-22.187s-13.653-9.387-22.187-9.387h-63.147zM543.573 321.707c8.533 0 15.872-3.072 22.187-9.387s9.387-13.653 9.387-22.187v-63.147c0-8.533-3.072-15.872-9.387-22.187s-13.653-9.387-22.187-9.387h-63.147c-8.533 0-15.872 3.072-22.187 9.387s-9.387 13.653-9.387 22.187v63.147c0 8.533 3.072 15.872 9.387 22.187s13.653 9.387 22.187 9.387h63.147zM543.573 574.293c8.533 0 15.872-3.072 22.187-9.387s9.387-13.653 9.387-22.187v-63.147c0-8.533-3.072-15.872-9.387-22.187s-13.653-9.387-22.187-9.387h-63.147c-8.533 0-15.872 3.072-22.187 9.387s-9.387 13.653-9.387 22.187v63.147c0 8.533 3.072 15.872 9.387 22.187s13.653 9.387 22.187 9.387h63.147zM290.987 574.293c8.533 0 15.872-3.072 22.187-9.387s9.387-13.653 9.387-22.187v-63.147c0-8.533-3.072-15.872-9.387-22.187s-13.653-9.387-22.187-9.387h-63.147c-8.533 0-15.872 3.072-22.187 9.387s-9.387 13.653-9.387 22.187v63.147c0 8.533 3.072 15.872 9.387 22.187s13.653 9.387 22.187 9.387h63.147zM290.987 321.707c8.533 0 15.872-3.072 22.187-9.387s9.387-13.653 9.387-22.187v-63.147c0-8.533-3.072-15.872-9.387-22.187s-13.653-9.387-22.187-9.387h-63.147c-8.533 0-15.872 3.072-22.187 9.387s-9.387 13.653-9.387 22.187v63.147c0 8.533 3.072 15.872 9.387 22.187s13.653 9.387 22.187 9.387h63.147z" />
<glyph unicode="&#xe93e;" glyph-name="mapfre_064_user-add" d="M512.5 895.937c-27.36 0-54.386-5.172-81.079-15.515s-50.716-23.523-72.070-39.539c-21.354-16.016-38.538-33.366-51.55-52.051s-19.519-36.369-19.519-53.052v-160.156c0-31.364 7.841-71.403 23.523-120.117s40.206-86.418 73.572-113.11c8.675-6.673 15.181-15.181 19.519-25.525s5.839-21.187 4.504-32.532c-2.002-10.677-6.173-20.52-12.512-29.529s-14.514-15.849-24.524-20.52l-281.275-133.13c-4.004-1.335-9.509-4.504-16.516-9.509s-10.51-14.18-10.51-27.527v-65.064l895.875 1.001v62.061c0 17.35-4.171 28.194-12.512 32.532s-12.846 6.506-13.513 6.506l-279.273 132.129c-10.010 4.671-18.351 11.511-25.024 20.52s-10.677 19.185-12.012 30.53c-1.335 11.344 0.167 22.188 4.504 32.532s10.844 18.852 19.519 25.525c34.701 26.693 59.224 64.563 73.572 113.611s21.521 88.92 21.521 119.617v160.156c0 17.35-6.673 35.368-20.020 54.053s-30.53 35.868-51.55 51.55c-21.021 15.682-45.044 28.695-72.070 39.038s-53.886 15.515-80.579 15.515zM512.5 960c35.368 0 70.235-6.673 104.602-20.020s65.063-30.697 92.090-52.051c27.027-21.354 49.048-45.378 66.065-72.070s25.525-53.385 25.525-80.078v-160.156c0-19.352-2.002-41.707-6.006-67.065s-10.677-51.217-20.020-77.576c-9.343-26.359-21.688-51.717-37.036-76.074s-34.033-45.211-56.055-62.561l279.273-133.13 31.531-17.517c21.021-11.678 31.531-26.859 31.531-45.544v-97.095c0-17.35-6.173-32.198-18.518-44.543s-27.193-18.518-44.543-18.518h-896.876c-18.018 0-33.199 6.173-45.544 18.518s-18.518 27.193-18.518 44.543v97.095c0 17.35 10.677 32.198 32.031 44.544l32.031 18.518 281.275 133.13c-22.689 18.018-41.707 39.705-57.056 65.064s-27.86 51.217-37.537 77.576c-9.676 26.359-16.516 52.051-20.52 77.075s-6.006 46.212-6.006 63.562v160.156c0 26.693 8.341 53.385 25.024 80.078s38.537 50.716 65.564 72.070c27.027 21.354 57.89 38.704 92.59 52.051s69.735 20.020 105.103 20.020zM938.548 870.155h85.452v-34.678h-85.452v-91.154h-39.148v91.154h-85.452v34.678h85.452v84.219h39.148v-84.219z" />
<glyph unicode="&#xe93f;" glyph-name="mapfre_065_card" d="M321.536 430.933c-60.075 0-108.715 48.64-108.715 108.715s48.64 108.715 108.715 108.715 108.715-48.64 108.715-108.715-48.811-108.715-108.715-108.715zM321.536 467.115c39.936 0 72.363 32.427 72.363 72.363s-32.427 72.363-72.363 72.363-72.363-32.427-72.363-72.363c-0.171-39.936 32.256-72.363 72.363-72.363zM321.536 267.947c-25.6 0-49.664-0.171-82.091-0.683 0.512 0-26.453-0.341-32.939-0.341-11.093-0.171-19.115-0.171-25.771-0.171-7.68 0-13.312 0.171-17.408 0.341-2.56 0.171-4.608 0.341-6.315 0.512-1.707 0.341-1.707 0.341-4.779 1.195-5.291 1.365-5.291 1.365-11.947 17.237 0 100.011 81.067 181.077 181.077 181.077s181.077-81.067 181.077-181.077c-4.608-13.653-4.608-13.653-10.24-16.555-3.584-1.536-3.584-1.536-5.632-1.877-2.048-0.512-4.267-0.683-6.997-0.853-4.096-0.341-9.899-0.341-17.579-0.341-6.656 0-14.677 0-25.771 0.341-6.656 0.171-33.451 0.512-32.939 0.512-32.256 0.512-56.32 0.683-81.749 0.683zM180.736 302.933c6.485 0 14.336 0 25.259 0.171 6.656 0 33.451 0.512 32.939 0.341 32.427 0.341 56.661 0.683 82.432 0.683s50.005-0.341 82.603-0.853c-0.512 0 26.453-0.512 32.939-0.512 10.923-0.171 18.773-0.171 25.259-0.171 1.195 0 2.219 0 3.243 0-8.192 72.192-69.461 128.341-143.872 128.341-74.24 0-135.509-55.979-143.872-128 1.024 0 2.048 0 3.072 0zM476.331 302.763c0.341 0 0.853 0 1.195 0-0.171 0-0.341 0-0.512 0h-0.683zM574.976 593.92h289.792c10.069 0 18.091-8.192 18.091-18.091s-8.192-18.091-18.091-18.091h-289.792c-10.069 0-18.091 8.192-18.091 18.091s8.192 18.091 18.091 18.091zM574.976 485.376h289.792c10.069 0 18.091-8.192 18.091-18.091 0-10.069-8.192-18.091-18.091-18.091h-289.792c-10.069 0-18.091 8.192-18.091 18.091s8.192 18.091 18.091 18.091zM916.821 738.816h-809.643c-16.384 0-29.184-5.291-40.619-16.725s-16.725-24.235-16.725-40.619v-467.285c0-16.384 5.291-29.184 16.725-40.619s24.235-16.725 40.619-16.725h809.813c16.384 0 29.184 5.291 40.619 16.725s16.725 24.235 16.725 40.619v467.456c0 16.384-5.291 29.184-16.725 40.619s-24.405 16.555-40.789 16.555zM916.821 774.997c25.941 0 47.957-9.045 66.219-27.307 18.091-18.091 27.307-40.277 27.307-66.219v-467.285c0-25.941-9.045-47.957-27.307-66.219-18.091-18.091-40.277-27.307-66.219-27.307h-809.643c-25.941 0-47.957 9.045-66.219 27.307s-27.307 40.277-27.307 66.219v467.456c0 25.941 9.045 47.957 27.307 66.219 18.091 18.091 40.277 27.307 66.219 27.307l809.643-0.171z" />
<glyph unicode="&#xe940;" glyph-name="mapfre_066_circle" d="M1010.347 448c0-275.229-223.117-498.347-498.347-498.347s-498.347 223.117-498.347 498.347c0 275.229 223.117 498.347 498.347 498.347s498.347-223.117 498.347-498.347z" />
<glyph unicode="&#xe941;" glyph-name="mapfre_067_face" d="M509.44-50.347c-276.139 0-500.907 224.768-500.907 500.907s224.768 500.907 500.907 500.907 500.907-224.768 500.907-500.907-224.768-500.907-500.907-500.907zM509.44 884.736c-239.445 0-434.176-194.731-434.176-434.176s194.731-434.176 434.176-434.176 434.176 194.731 434.176 434.176-194.731 434.176-434.176 434.176zM520.533 156.16c-110.421 0-200.363 89.941-200.363 200.363 0 65.707 131.072 82.944 200.363 82.944s200.363-17.408 200.363-82.944c0-110.592-89.771-200.363-200.363-200.363zM387.243 347.819c4.437-69.632 62.464-124.928 133.291-124.928s128.853 55.296 133.291 124.928c-13.995 8.533-59.392 24.747-133.291 24.747s-119.125-16.043-133.291-24.747zM342.528 539.648c0-30.728-24.91-55.637-55.637-55.637s-55.637 24.91-55.637 55.637c0 30.728 24.91 55.637 55.637 55.637s55.637-24.91 55.637-55.637zM787.627 539.648c0-30.728-24.91-55.637-55.637-55.637s-55.637 24.91-55.637 55.637c0 30.728 24.91 55.637 55.637 55.637s55.637-24.91 55.637-55.637z" />
<glyph unicode="&#xe942;" glyph-name="mapfre_069_reportar-siniestro" d="M886.949 214.907l-13.823-69.782c-1.618-7.033-6.008-13.174-12.232-17.108-4.472-2.841-9.733-4.285-15.077-4.139h-5.689l-50.91 10.408c-15.309-41.617-56.122-70.219-102.701-70.287-7.545 0.065-15.068 0.804-22.473 2.208-54.050 11.324-90.108 59.672-85.855 111.802l-301.794 61.745c-14.815-41.691-55.213-70.613-101.63-71.174-7.563 0.009-15.101 0.842-22.473 2.483-28.488 5.449-53.543 21.732-69.576 45.216-13.54 19.833-19.694 43.408-17.699 66.866l-42.726 8.779c-14.758 3.175-24.379 16.991-21.904 31.457l47.79 216.887c3.529 14.217 17.878 23.295 32.713 20.695l42.923-8.727 44.407 204.367c2.286 10.5 8.852 19.656 18.206 25.386 8.942 6.281 20.172 8.68 31.007 6.623l417.594-85.541c17.799-3.577 31.086-18.035 32.713-35.596l51.455-236.287 132.594-26.958-3.129-13.245c0-4.967-2.276-10.486-3.698-15.453l25.602 17.66 4.551 1.932 7.965 1.932 5.689-5.795c6.258-6.347 4.551-11.313-1.707-29.525l-5.689-17.384 32.145 4.691-7.77-39.225c10.099-3.572 18.769-10.321 24.554-19.274 7.409-10.789 9.977-24.037 7.112-36.7-4.909-22.938-25.917-39.264-50.066-38.907-0.133-0.011-0.267-0.021-0.4-0.031zM118.171 526.266l-42.969 8.761-46.368-217.163 42.45-8.647c19.17 47.348 71.219 75.433 123.863 64.661 52.691-10.782 88.627-56.939 86.378-107.817l302.905-61.972c19.256 47.155 71.136 75.074 123.61 64.405 52.272-10.628 88.152-56.096 86.562-106.549l51.215-10.471 32.998 165.563-15.361-2.483-3.698 1.656c-10.81 4.967-10.81 15.177-5.974 32.285l-19.344-13.797-7.396-6.071-8.818 4.691c-9.103 5.519-9.387 8.554 0 50.221l-92.768 18.914 0.033-0.15-607.317 123.966zM279.15 520.656l410.341-83.427-49.057 225.281c-0.074 6.438-4.643 12.006-11.094 13.521l-417.594 84.989c-3.543 0.666-7.214-0.026-10.241-1.932-3.178-1.874-5.358-4.996-5.974-8.554l-44.377-203.642 127.996-26.236zM174.765 352.907c-42.584-0.025-77.889-32.004-80.83-73.212s27.487-77.6 69.661-83.316c42.174-5.716 81.719 21.193 90.534 61.606 4.465 20.419 0.377 41.723-11.361 59.217s-30.165 29.744-51.221 34.050c-5.524 1.088-11.146 1.643-16.783 1.656zM686.517 248.327c-15.701 0.035-31.055-4.481-44.092-12.969-18.164-11.303-30.911-29.185-35.399-49.66s-0.346-41.841 11.504-59.336c18.014-26.729 50.902-40.237 83.225-34.184s57.665 30.465 64.127 61.778c4.465 20.419 0.377 41.723-11.361 59.217s-30.165 29.744-51.221 34.050c-5.543 0.903-11.165 1.273-16.783 1.104zM902.426 280.612l-8.249-37.804c8.006 2.233 14.048 8.626 15.646 16.556 1.641 7.857-1.181 15.964-7.396 21.247zM851.507 461.627c-4.982 0.013-9.561 2.657-11.948 6.898l-48.075 82.781c-1.817 3.101-2.268 6.782-1.251 10.21s3.417 6.313 6.656 8.002c6.611 3.557 14.941 1.354 18.775-4.967l48.075-82.781c3.62-6.485 1.215-14.587-5.405-18.212-2.035-1.271-4.407-1.942-6.827-1.932zM962.732 461.627c-2.42-0.010-4.792 0.661-6.827 1.932-3.19 1.737-5.529 4.642-6.492 8.066s-0.469 7.079 1.371 10.146l47.79 82.781c4.092 5.771 12.051 7.555 18.338 4.11s8.823-10.976 5.841-17.356l-48.075-82.781c-2.387-4.241-6.966-6.885-11.948-6.898zM907.262 461.627c-7.698 0-13.939 6.054-13.939 13.521v95.199c0 7.62 6.368 13.797 14.223 13.797s14.223-6.177 14.223-13.797v-95.199c0.003-3.684-1.543-7.209-4.282-9.761s-6.432-3.91-10.226-3.76z" />
<glyph unicode="&#xe943;" glyph-name="mapfre_070_buscar-clinicas" d="M645.276 276.233c-65.836-54.103-149.873-86.592-241.444-86.724-211.248 0-382.499 172.48-382.499 385.245s171.251 385.245 382.499 385.245c211.248 0 382.499-172.48 382.499-385.245-0.157-110.401-46.348-209.929-120.277-280.157l332.685-335.074c5.237-5.381 5.237-13.992 0-19.373-2.621-2.649-6.179-4.142-9.892-4.151-3.63 0.021-7.098 1.518-9.617 4.151l-333.954 336.082zM634.921 303.297c1.203 1.655 2.76 3.029 4.563 4.013 73.228 65.501 119.368 161.046 119.368 267.445-0.152 197.417-159.011 357.417-355.021 357.57-196.072 0-355.021-160.089-355.021-357.57s158.948-357.57 355.021-357.57c88.254 0 168.987 32.434 231.089 86.113zM381.3 700.125h43.965c11.837 0 21.433-9.665 21.433-21.587v-58.672h62.376c11.837 0 21.433-9.665 21.433-21.587v-42.897c0.073-5.773-2.152-11.335-6.18-15.444s-9.521-6.421-15.253-6.42h-62.376v-62.547c0-11.922-9.596-21.587-21.433-21.587h-43.965c-11.837 0-21.433 9.665-21.433 21.587v62.547h-61.277c-11.989 0-21.708 9.789-21.708 21.864v42.897c0.15 11.967 9.825 21.588 21.708 21.587h61.277v58.672c0 11.922 9.596 21.587 21.433 21.587z" />
<glyph unicode="&#xe944;" glyph-name="mapfre_071_servicios" d="M287.915 35.499c-5.12 0-10.24-2.048-13.824-5.632s-5.632-8.704-5.632-13.824 2.048-10.24 5.632-13.824 8.704-5.803 13.824-5.803 10.24 2.048 13.824 5.803c3.584 3.584 5.632 8.704 5.632 13.824s-2.048 10.24-5.632 13.824-8.704 5.632-13.824 5.632zM120.832 16.555c5.12 0 10.24 2.048 13.824 5.632s5.632 8.704 5.632 13.824-2.048 10.069-5.632 13.824c-3.584 3.584-8.704 5.632-13.824 5.632s-10.24-2.048-13.824-5.632-5.632-8.704-5.632-13.824 2.048-10.069 5.632-13.824c3.584-3.413 8.704-5.632 13.824-5.632zM253.099 484.352h7.851c10.752 0 19.456 8.704 19.456 19.456v272.384c0 73.216 59.563 132.779 132.949 132.779h21.163c10.752 0 19.456 8.704 19.456 19.456s-8.704 19.456-19.456 19.456h-21.163c-94.72 0-171.861-77.141-171.861-171.861v-50.688c-61.269-5.973-109.227-57.685-109.227-120.32 0-66.389 54.101-120.661 120.832-120.661zM241.323 686.251v-162.133c-39.595 5.632-70.144 39.936-70.144 81.067 0 41.301 30.549 75.435 70.144 81.067zM509.44 909.141h0.853c10.752 0 19.456 8.704 19.456 19.456s-8.704 19.456-19.456 19.456h-0.853c-10.752 0-19.456-8.704-19.456-19.456-0.171-10.752 8.704-19.456 19.456-19.456zM583.68 909.141h21.845c73.216 0 132.779-59.563 132.779-132.779v-326.997c0-6.656-5.461-12.117-11.947-12.117h-145.237c-7.68 18.261-25.771 31.232-46.763 31.232h-44.544c-27.989 0-50.688-22.699-50.688-50.688v0c0-27.989 22.699-50.688 50.688-50.688h44.544c20.992 0 39.083 12.8 46.763 31.232h145.067c28.16 0 51.029 22.869 51.029 51.029v35.669c61.269 5.973 109.227 57.685 109.227 120.32 0 62.805-47.957 114.347-109.227 120.32v50.688c0 94.72-77.141 171.861-171.861 171.861h-21.675c-10.752 0-19.456-8.704-19.456-19.456-0.171-10.923 8.704-19.627 19.456-19.627zM534.357 406.016h-44.544c-6.485 0-11.605 5.291-11.605 11.605v0c0 6.485 5.291 11.605 11.605 11.605h44.544c6.485 0 11.605-5.291 11.605-11.776 0.171-6.144-5.12-11.435-11.605-11.435zM777.387 686.251c39.595-5.632 70.144-39.936 70.144-81.067s-30.549-75.435-70.144-81.067v162.133zM423.595 838.656c-7.68 7.68-19.968 7.68-27.648 0l-43.349-43.349c-3.584-3.584-5.632-8.533-5.632-13.824 0-5.12 2.048-10.069 5.632-13.824l12.971-12.971c-3.755-7.339-6.827-14.848-9.387-22.699h-18.432c-10.752 0-19.456-8.704-19.456-19.456v-61.44c0-10.752 8.704-19.456 19.456-19.456h18.432c2.56-7.851 5.632-15.36 9.387-22.699l-12.971-12.971c-3.584-3.584-5.632-8.533-5.632-13.824 0-5.12 2.048-10.069 5.632-13.824l43.349-43.349c7.68-7.68 19.968-7.68 27.648 0l12.971 12.971c7.339-3.755 14.848-6.827 22.528-9.387v-18.432c0-10.752 8.704-19.456 19.456-19.456h61.44c10.752 0 19.456 8.704 19.456 19.456v18.432c7.851 2.56 15.36 5.632 22.699 9.387l12.971-12.971c7.68-7.68 19.968-7.68 27.648 0l43.349 43.349c3.584 3.584 5.632 8.533 5.632 13.824 0 5.12-2.048 10.069-5.632 13.824l-12.971 12.971c3.755 7.339 6.827 14.848 9.387 22.699h18.432c10.752 0 19.456 8.704 19.456 19.456v61.44c0 10.752-8.704 19.456-19.456 19.456h-18.261c-2.56 7.851-5.632 15.531-9.387 22.869l12.8 12.8c3.584 3.584 5.632 8.533 5.632 13.824 0 5.12-2.048 10.069-5.632 13.824l-43.349 43.349c-7.68 7.68-19.968 7.68-27.648 0l-12.8-12.8c-7.339 3.755-15.019 6.827-22.869 9.387v18.261c0 10.752-8.704 19.456-19.456 19.456h-61.44c-10.752 0-19.456-8.704-19.456-19.456v-18.261c-7.851-2.56-15.36-5.632-22.699-9.387l-12.8 12.8zM482.475 801.28c8.875 1.877 15.701 9.728 15.701 19.115v13.653h22.357v-13.483c0-9.045 6.315-17.067 15.189-19.115 0.171 0 0.171 0 0.171 0 13.995-3.072 27.136-8.533 39.253-16.213 7.68-4.949 17.749-3.755 24.235 2.731l9.557 9.557 15.872-15.872-9.557-9.557c-6.485-6.485-7.509-16.725-2.56-24.405 7.68-11.947 12.971-25.088 16.213-38.912 1.707-8.875 9.728-15.701 19.115-15.701h13.653v-22.357h-13.483c-9.216 0-17.237-6.485-19.115-15.36-3.072-13.995-8.533-27.136-16.213-39.083-4.949-7.68-3.755-17.749 2.56-24.235l9.728-9.728-15.872-15.872-9.728 9.728c-6.485 6.485-16.555 7.509-24.235 2.731-12.117-7.68-25.259-13.141-39.253-16.213-8.875-2.048-15.36-9.899-15.36-19.115v-13.824h-22.357v13.824c0 9.216-6.315 17.067-15.36 19.115-13.995 3.072-27.136 8.533-39.083 16.213-7.68 4.949-17.749 3.755-24.235-2.731l-9.728-9.728-15.872 15.872 9.728 9.728c6.485 6.485 7.509 16.555 2.731 24.235-7.68 11.947-13.141 25.259-16.213 39.083-2.048 8.875-9.899 15.36-19.115 15.36h-13.824v22.357h13.653c8.875 0 16.555 5.973 18.944 14.336 0.171 0.341 0.171 0.683 0.171 0.853 3.072 13.995 8.533 27.136 16.213 39.083 4.949 7.68 3.755 17.749-2.731 24.235l-9.728 9.728 15.872 15.872 9.728-9.728c6.485-6.485 16.555-7.509 24.235-2.56 11.947 7.68 24.917 13.141 38.741 16.384zM509.44 607.744c40.789 0 74.069 33.28 74.069 74.069s-33.28 74.069-74.069 74.069-74.069-33.28-74.069-74.069c-0.171-40.789 33.109-74.069 74.069-74.069zM509.44 716.971c19.285 0 35.157-15.701 35.157-35.157 0-19.285-15.701-35.157-35.157-35.157-19.285 0-35.157 15.701-35.157 35.157s15.701 35.157 35.157 35.157zM120.832 88.064c10.752 0 19.456 8.704 19.456 19.456v134.485c0 10.752-8.704 19.456-19.456 19.456s-19.456-8.704-19.456-19.456v-134.485c-0.171-10.581 8.704-19.456 19.456-19.456zM1008.469 303.957c-1.195 22.357-12.288 42.837-30.208 56.149-29.013 21.504-69.291 19.285-95.744-5.291l-160.939-150.016c1.024 32.939-20.651 62.123-53.248 70.315l-196.608 49.835c-34.475 8.704-70.656 7.509-104.448-3.413l-135.851-44.203v39.253c0 10.752-8.704 19.456-19.456 19.456h-182.272c-10.752 0-19.456-8.704-19.456-19.456v-347.307c0-10.752 8.704-19.456 19.456-19.456h182.101c10.752 0 19.456 8.704 19.456 19.456v267.093l147.968 47.957c26.795 8.704 55.467 9.728 82.773 2.731l196.779-49.835c15.36-3.925 25.259-18.091 23.723-33.792-1.536-16.213-15.189-28.501-31.403-28.501h-156.501c-10.752 0-19.456-8.704-19.456-19.456s8.704-19.456 19.456-19.456h61.44c0.683 0 1.536-0.171 2.219-0.171h96.768c32.256 0 62.976 12.117 86.699 34.133l167.595 156.16c12.629 11.776 32.085 12.971 45.909 2.56 8.533-6.315 13.824-16.213 14.507-26.965s-3.584-20.992-11.435-28.331l-231.083-214.869c-15.872-14.848-36.693-23.040-58.368-23.040h-302.251c-10.752 0-19.456-8.704-19.456-19.456s8.704-19.456 19.456-19.456h302.251c31.573 0 61.781 11.947 84.992 33.451l230.912 214.869c16.384 15.189 25.088 36.693 23.723 59.051zM192.341-11.264h-143.189v308.224h143.189v-308.224z" />
<glyph unicode="&#xe945;" glyph-name="mapfre_068_telemedicina" d="M709.538 773.526c14.214-0.695 25.581-12.065 26.275-26.283v-69.997h76.337c7.241 0.092 14.191-2.841 19.179-8.093s7.559-12.346 7.097-19.574v-50.907c0.018-14.756-11.543-26.929-26.275-27.667h-74.954v-79.68c0.018-14.756-11.543-26.929-26.275-27.667h-53.657c-15.275 0-27.658 12.387-27.658 27.667v75.807h-75.784c-15.275 0-27.658 12.387-27.658 27.667v52.013c0 15.28 12.383 27.667 27.658 27.667h74.401v71.38c0 15.28 12.383 27.667 27.658 27.667h53.657zM468.635-63.391h-1.936c-78.826 0-207.437 40.393-316.134 151.614-96.251 97.387-157.652 227.974-149.908 315.677 0.761 26.271 13.37 50.785 34.296 66.677l78.549 55.333c10.393 6.88 24.347 4.453 31.807-5.533l115.335-156.317c3.689-5.218 5.179-11.677 4.149-17.983-1.075-6.304-4.67-11.898-9.957-15.493l-51.444-46.48c0-4.15 5.255-31.817 76.89-96.557 57.253-51.737 80.486-55.333 85.464-53.95l41.764 43.713c7.645 9.286 21.159 11.097 30.977 4.15l160.695-110.667c9.827-6.666 13.048-19.673 7.468-30.157l-4.978-9.683c-13.071-27.003-30.975-51.383-52.827-71.933-22.927-17.376-51.599-25.386-80.209-22.41zM125.672 499.349l-74.954-51.46c-13.584-11.718-21.697-28.551-22.403-46.48-6.361-67.783 40.104-190.347 141.61-294.097 77.413-83.482 183.532-134.581 297.050-143.037h1.383c21.547-2.085 43.129 3.607 60.848 16.047 20.004 18.372 36.253 40.453 47.849 65.017l3.319 6.363-154.61 105.133-42.317-44.267c-9.957-8.853-39.828-19.367-121.696 55.333-95.144 86.043-89.060 121.18-82.975 132.247l2.213 2.767 55.317 48.693-110.633 147.74zM681.88 276.079c-58.103-0.097-115.252 14.767-165.95 43.16l-97.081-33.477c-9.637-3.204-20.255-0.868-27.658 6.087-7.343 7.173-10.112 17.824-7.191 27.667l27.658 89.363c-94.303 122.035-95.262 292.114-2.341 415.206s256.718 168.721 399.869 111.394c143.151-57.327 230.216-203.419 212.549-356.647s-135.695-275.657-288.134-298.88c-17.125-2.527-34.41-3.822-51.721-3.873zM519.526 349.396l5.255-3.043c61.715-36.145 133.993-49.921 204.671-39.010 141.042 21.298 250.134 134.811 265.852 276.626s-65.868 276.474-198.821 328.159c-132.953 51.685-284.032 7.472-368.172-107.744s-80.305-272.629 9.347-383.608l4.425-5.533-31.53-103.473 108.974 37.627z" />
<glyph unicode="&#xe946;" glyph-name="mapfre_073_casco" d="M375.929 705.609c-26.061-9.282-50.15-20.783-72.201-34.405v-177.87c0.094-6.939-2.618-13.621-7.521-18.528s-11.58-7.622-18.513-7.527c-14.378 0-26.034 11.665-26.034 26.055v138.315c-76.621-71.111-117.326-177.158-117.326-311.32v-37.867h217.643v-1.042h319.002v1.042h218.685v37.867c0 131.287-42.87 239.548-120.45 311.938v-138.933c0-14.39-11.656-26.055-26.034-26.055-6.933-0.094-13.61 2.62-18.513 7.527s-7.615 11.589-7.521 18.528v178.851c-21.273 13.285-44.333 24.487-69.077 33.445v-191.452h-52.068v195.238c0 46.431-37.609 84.071-84.003 84.071s-84.003-37.64-84.003-84.071v-190.027h-52.068v186.219zM387.224 763.825c20.983 48.131 68.954 81.772 124.776 81.772 55.799 0 103.754-33.614 124.75-81.713 191.151-55.034 304.983-219.661 304.983-443.554v-37.867h20.48c16.387 0 32.103-6.515 43.69-18.112s18.097-27.325 18.097-43.725v-160.846h-1024v160.846c0 34.152 27.663 61.837 61.787 61.837h20.48v37.867c0 230.221 108.084 387.326 304.957 443.495zM82.267 230.353h-20.48c-5.368 0-9.719-4.355-9.719-9.727v-107.346h919.864v107.346c0 2.58-1.024 5.054-2.847 6.878s-4.295 2.849-6.873 2.849h-20.48v-1.042h-859.466v1.042z" />
<glyph unicode="&#xe947;" glyph-name="mapfre_072_cotizar" d="M331.093 127.147c15.531 0 32.256 0 47.787 1.195v-60.928c0-74.069 161.28-107.52 310.613-107.52s310.613 33.451 310.613 107.52v238.933c0 74.069-161.28 107.52-310.613 107.52-15.531 0-32.256 0-47.787-1.195v419.328c0 74.069-161.28 107.52-310.613 107.52s-310.613-33.451-310.613-107.52v-597.333c0-74.069 161.28-107.52 310.613-107.52zM593.92 712.533c0-17.92-91.989-59.733-262.827-59.733s-262.827 41.813-262.827 59.733v58.539c58.539-32.256 163.669-46.592 262.827-46.592s204.288 14.336 262.827 46.592v-58.539zM331.093 605.013c99.157 0 204.288 14.336 262.827 46.592v-58.539c0-17.92-91.989-59.733-262.827-59.733s-262.827 41.813-262.827 59.733v58.539c58.539-32.256 163.669-46.592 262.827-46.592v0zM331.093 485.547c99.157 0 204.288 14.336 262.827 46.592v-58.539c0-17.92-91.989-59.733-262.827-59.733s-262.827 41.813-262.827 59.733v58.539c58.539-32.256 163.669-46.592 262.827-46.592zM331.093 366.080c34.645 0 70.485 2.389 103.936 5.973-34.645-16.725-56.149-38.229-56.149-65.707v-10.752c-15.531-1.195-32.256-1.195-47.787-1.195-170.837 0-262.827 41.813-262.827 59.733v58.539c58.539-32.256 163.669-46.592 262.827-46.592zM952.32 186.88c0-17.92-91.989-59.733-262.827-59.733s-262.827 41.813-262.827 59.733v58.539c58.539-32.256 163.669-46.592 262.827-46.592s204.288 14.336 262.827 46.592v-58.539zM331.093 174.933c-170.837 0-262.827 41.813-262.827 59.733v58.539c58.539-32.256 163.669-46.592 262.827-46.592 15.531 0 32.256 0 47.787 1.195v-71.68c-15.531-1.195-32.256-1.195-47.787-1.195zM689.493 7.68c-170.837 0-262.827 41.813-262.827 59.733v58.539c58.539-32.256 163.669-46.592 262.827-46.592s204.288 14.336 262.827 46.592v-58.539c0-17.92-91.989-59.733-262.827-59.733zM952.32 306.347c0-17.92-91.989-59.733-262.827-59.733s-262.827 41.813-262.827 59.733 91.989 59.733 262.827 59.733 262.827-41.813 262.827-59.733zM585.557 407.893c3.243 0.853 5.973 2.56 8.363 4.779v-3.584c-2.389 0-5.973 0-8.363-1.195zM331.093 891.733c170.837 0 262.827-41.813 262.827-59.733s-91.989-59.733-262.827-59.733-262.827 41.813-262.827 59.733 91.989 59.733 262.827 59.733v0z" />
<glyph unicode="&#xe948;" glyph-name="mapfre_080_close4" d="M413.867 448l-392.533 392.533 98.133 98.133 392.533-392.533 392.533 392.533 98.133-98.133-392.533-392.533 392.533-392.533-98.133-98.133-392.533 392.533-392.533-392.533-98.133 98.133 392.533 392.533z" />
</font>
</defs>
</svg>
